<?xml version="1.0" encoding="utf-8"?><svg viewBox="0 0 36 36" xmlns="http://www.w3.org/2000/svg" xmlns:xlink="http://www.w3.org/1999/xlink"><style>:root>svg{display:none}:root>svg:target{display:block}</style><svg fill="none" viewBox="0 0 14 24" id="arrow" xmlns="http://www.w3.org/2000/svg"><path d="M12 2 2 12l10 10" stroke="#2A2C32" stroke-width="3" stroke-linecap="round" stroke-linejoin="round"/></svg><svg viewBox="0 0 448 512" id="check" xmlns="http://www.w3.org/2000/svg"><!--!Font Awesome Free 6.5.1 by @fontawesome - https://fontawesome.com License - https://fontawesome.com/license/free Copyright 2023 Fonticons, Inc.--><path fill="#fff" d="M438.6 105.4c12.5 12.5 12.5 32.8 0 45.3l-256 256c-12.5 12.5-32.8 12.5-45.3 0l-128-128c-12.5-12.5-12.5-32.8 0-45.3s32.8-12.5 45.3 0L160 338.7l233.4-233.3c12.5-12.5 32.8-12.5 45.3 0z"/></svg><svg fill="none" viewBox="0 0 36 36" id="check-green" xmlns="http://www.w3.org/2000/svg"><path d="M15.364 24.471 9 18.105l2.121-2.121 4.243 4.242 8.485-8.485 2.122 2.122-10.607 10.608Z" fill="#049413"/><path fill-rule="evenodd" clip-rule="evenodd" d="M1.5 18C1.5 8.887 8.887 1.5 18 1.5S34.5 8.887 34.5 18 27.113 34.5 18 34.5 1.5 27.113 1.5 18ZM18 31.5a13.5 13.5 0 1 1 0-27.002A13.5 13.5 0 0 1 18 31.5Z" fill="#049413"/></svg><svg fill="none" viewBox="0 0 24 24" id="list" xmlns="http://www.w3.org/2000/svg"><path fill-rule="evenodd" clip-rule="evenodd" d="M12 24A12 12 0 1 0 12-.002 12 12 0 0 0 12 24Zm-.31-7.147 6.667-8-2.048-1.706-5.733 6.878-2.967-2.968-1.885 1.886 4 4 1.032 1.032.935-1.122Z" fill="#E51E1B"/></svg><svg fill="none" viewBox="0 0 24 24" id="phone" xmlns="http://www.w3.org/2000/svg"><path d="m16.556 12.906-.455.453s-1.083 1.076-4.038-1.862-1.872-4.014-1.872-4.014l.286-.286c.707-.702.774-1.83.157-2.654L9.374 2.86C8.61 1.84 7.135 1.705 6.26 2.575l-1.57 1.56c-.433.432-.723.99-.688 1.61.09 1.587.808 5 4.812 8.982 4.247 4.222 8.232 4.39 9.861 4.238.516-.048.964-.31 1.325-.67l1.42-1.412c.96-.953.69-2.588-.538-3.255l-1.91-1.039c-.806-.437-1.786-.309-2.416.317Z" fill="#E51E1B"/></svg><svg fill="none" viewBox="0 0 16 16" id="star" xmlns="http://www.w3.org/2000/svg"><path d="m14.643 7.178-2.812 2.427.857 3.63a1.025 1.025 0 0 1-1.532 1.113L8 12.405l-3.158 1.943a1.025 1.025 0 0 1-1.53-1.114l.86-3.63L1.36 7.179a1.029 1.029 0 0 1 .582-1.803l3.688-.298 1.422-3.442a1.023 1.023 0 0 1 1.892 0l1.422 3.442 3.688.298a1.03 1.03 0 0 1 .585 1.804l.004-.001Z" fill="#EBD510"/></svg></svg>