<svg width="48" height="48" viewBox="0 0 48 48" fill="none" xmlns="http://www.w3.org/2000/svg">
<g clip-path="url(#clip0_29_377)">
<path d="M0 40.4687C0.2275 40.2472 0.46125 40.0444 0.81375 40.0795C1.13375 40.1108 1.09375 39.8354 1.14 39.6627C2.02375 36.3789 2.90125 33.0925 3.78 29.8074C4.695 26.3859 5.6175 22.9669 6.52 19.5429C6.6325 19.1149 6.86 18.8408 7.23125 18.6168C12.4012 15.5144 17.5625 12.3995 22.735 9.30215C23.1063 9.07939 23.2437 8.83535 23.24 8.4086C23.2213 5.95698 23.2362 3.50661 23.2262 1.05499C23.225 0.639499 23.3162 0.285334 23.625 0H33.4688C33.775 0.286586 33.8687 0.640751 33.8662 1.05624C33.8537 2.83582 33.8625 4.61541 33.86 6.39499C33.8587 7.26977 33.6125 7.51631 32.7513 7.51756C30.2825 7.51881 27.8137 7.52757 25.345 7.5088C24.8962 7.50504 24.7812 7.64271 24.7488 8.08823C24.6988 8.75276 24.9275 9.12695 25.5125 9.45733C27.17 10.3947 28.7875 11.4046 30.42 12.387C30.5938 12.4921 30.775 12.591 30.9263 12.7237C31.2288 12.9902 31.325 13.3181 31.1125 13.6873C30.9225 14.0177 30.4975 14.1516 30.1325 13.9514C29.5163 13.6147 28.9188 13.243 28.3162 12.8813C27.0175 12.1017 25.715 11.3283 24.4263 10.5323C24.1163 10.3409 23.88 10.3509 23.5725 10.5373C18.56 13.5659 13.5413 16.5869 8.51875 19.598C8.15625 19.8145 8.0175 20.0723 7.98125 20.494C7.79875 22.6528 7.575 24.8091 7.36875 26.9654C7.2 28.7349 7.0375 30.5045 6.86875 32.2741C6.66375 34.4153 6.45375 36.5566 6.2475 38.6978C6.11125 40.1095 5.9825 41.5224 5.84 42.9341C5.80125 43.3133 5.92375 43.4634 6.325 43.4609C9.0125 43.4484 11.7 43.4497 14.3875 43.4609C14.7375 43.4622 14.8913 43.3408 14.9475 43.0004C15.0675 42.262 15.2125 41.5274 15.355 40.7928C15.46 40.2497 15.7987 39.9806 16.255 40.0569C16.6987 40.132 16.925 40.5175 16.8312 41.0581C16.7237 41.6726 16.6112 42.2858 16.4975 42.899C16.4012 43.4221 16.4212 43.4522 16.9737 43.4534C18.8325 43.4559 20.6925 43.4534 22.5513 43.4534C25.3638 43.4534 28.1763 43.4534 30.9888 43.4534C31.595 43.4534 31.605 43.4359 31.4963 42.8477C30.99 40.1183 30.4762 37.3901 29.985 34.6594C29.9175 34.2852 29.7575 34.115 29.3925 33.9986C27.3587 33.3453 25.685 32.1489 24.3525 30.4907C24.0575 30.1241 23.9212 30.1653 23.6475 30.502C22.2862 32.1802 20.585 33.3841 18.5138 34.0349C18.2175 34.1275 18.0863 34.2902 18.035 34.5843C17.8587 35.583 17.6737 36.5791 17.475 37.5728C17.3713 38.0934 17.0238 38.3662 16.6075 38.2949C16.1775 38.221 15.9187 37.8644 16.0075 37.3425C16.2288 36.036 16.4825 34.7345 16.7288 33.4329C16.8062 33.025 17.0987 32.8472 17.4762 32.7559C19.73 32.2065 21.4738 30.9125 22.8575 29.0828C23.125 28.7287 23.2762 28.3695 23.24 27.9202C23.2125 27.5786 23.2225 27.2332 23.2425 26.8903C23.2712 26.4009 23.5675 26.0918 23.9862 26.0843C24.425 26.0756 24.7312 26.3922 24.765 26.9053C24.78 27.1381 24.7975 27.3771 24.765 27.6074C24.6663 28.3132 24.9412 28.8651 25.3813 29.3957C26.7575 31.0539 28.4225 32.2565 30.5438 32.7609C31.0225 32.8748 31.2438 33.1726 31.3288 33.6332C31.8925 36.7005 32.4725 39.7654 33.0213 42.8352C33.1063 43.3083 33.2738 43.4734 33.7725 43.4684C36.3662 43.4422 38.96 43.4572 41.5537 43.4559C42.175 43.4559 42.2125 43.4096 42.1525 42.7789C41.8088 39.1947 41.4688 35.6092 41.1225 32.025C40.7612 28.2856 40.3625 24.5488 40.055 20.8056C39.995 20.0685 39.6988 19.7043 39.115 19.3652C37.1725 18.2326 35.2525 17.0587 33.3262 15.8986C33.14 15.786 32.9425 15.6771 32.7875 15.5282C32.5087 15.2604 32.4413 14.9325 32.6738 14.5996C32.8938 14.2855 33.2 14.1491 33.57 14.318C33.825 14.4344 34.0638 14.5858 34.305 14.7298C36.4738 16.0325 38.6387 17.3428 40.8112 18.6381C41.1725 18.8533 41.3713 19.1349 41.48 19.5416C43.2575 26.2207 45.0462 32.896 46.8288 39.5739C46.9062 39.8655 46.9375 40.1508 47.3775 40.0945C47.6362 40.0619 47.8187 40.2997 48.0025 40.4674V47.587C47.7762 47.9187 47.455 48 47.0675 47.9987C43.7875 47.99 40.5062 47.9937 37.2262 47.9925C37.0863 47.9925 36.94 48 36.8075 47.9662C36.445 47.8723 36.255 47.6246 36.26 47.2491C36.2637 46.8737 36.4588 46.6271 36.825 46.547C36.99 46.5108 37.1662 46.5233 37.3387 46.5233C40.135 46.5233 42.9313 46.5233 45.7275 46.5208C46.6562 46.5208 46.5612 46.6209 46.565 45.7036C46.5675 44.9865 46.565 44.9865 45.8587 44.9865C31.3462 44.9865 16.835 44.9865 2.3225 44.9865C1.3275 44.9865 1.45125 44.8864 1.445 45.86C1.44 46.5208 1.445 46.5208 2.11 46.5208C12.4825 46.5208 22.855 46.5208 33.2275 46.5208C33.415 46.5208 33.6037 46.5095 33.7887 46.532C34.325 46.5946 34.6087 47.1452 34.3537 47.6145C34.1687 47.9537 33.8537 47.9925 33.51 47.9925C22.6375 47.99 11.765 47.99 0.8925 47.995C0.5175 47.995 0.22 47.8936 0.005 47.5833V40.4637L0 40.4687ZM28.59 1.43794C27.4662 1.43794 26.3425 1.44419 25.2188 1.43293C24.9125 1.43043 24.76 1.50927 24.7625 1.84967C24.775 3.08111 24.7738 4.31381 24.7625 5.54525C24.76 5.86562 24.8775 5.98952 25.2 5.98827C27.4313 5.98076 29.6637 5.98076 31.895 5.98827C32.2238 5.98827 32.3287 5.85311 32.3262 5.53899C32.3162 4.32257 32.3138 3.10614 32.3275 1.88971C32.3312 1.54431 32.2113 1.42542 31.865 1.43043C30.7725 1.4467 29.68 1.43668 28.5875 1.43668L28.59 1.43794ZM42.3625 28.6999C42.3438 28.6974 42.325 28.6949 42.3063 28.6924C42.4263 29.885 42.5525 31.0764 42.665 32.2691C42.99 35.7269 43.3088 39.1859 43.6312 42.6437C43.7075 43.4572 43.7088 43.4634 44.555 43.4534C44.83 43.4497 45.2113 43.5848 45.3587 43.3521C45.6575 42.879 46.0137 42.3847 45.8475 41.7552C45.5887 40.7753 45.3275 39.7966 45.0662 38.818C44.165 35.4453 43.2637 32.0726 42.3625 28.7011V28.6999ZM5.6875 28.6824C5.67625 28.6799 5.66625 28.6774 5.655 28.6749C5.6275 28.7612 5.595 28.8463 5.57125 28.9339C4.4525 33.1201 3.35 37.31 2.2 41.4874C2.0025 42.2032 2.26875 42.7589 2.59125 43.287C2.8175 43.6574 3.3175 43.3984 3.68875 43.4572C3.71875 43.4622 3.75125 43.4547 3.7825 43.4572C4.12 43.4922 4.2875 43.3796 4.31875 43.0029C4.4475 41.4824 4.6075 39.9643 4.755 38.4451C4.93 36.6317 5.105 34.8183 5.27875 33.0037C5.41625 31.5632 5.55 30.1215 5.68625 28.6811L5.6875 28.6824Z" fill="#E51E1B"/>
<path d="M28.53 19.0611C28.53 19.5291 28.5375 19.9972 28.5288 20.4652C28.5188 21.0146 28.3013 21.2649 27.7488 21.3237C27.4088 21.36 27.0625 21.3575 26.72 21.35C26.4075 21.3425 26.255 21.4564 26.2725 21.7868C26.2888 22.0984 26.2813 22.4113 26.2725 22.7229C26.255 23.276 25.9963 23.5876 25.45 23.6039C24.4825 23.6327 23.5138 23.6327 22.5463 23.6039C22.0013 23.5876 21.7463 23.2748 21.7288 22.7191C21.72 22.4538 21.7025 22.186 21.7313 21.9244C21.7813 21.4576 21.5713 21.3187 21.135 21.3475C20.81 21.3688 20.4788 21.3475 20.155 21.31C19.7225 21.2599 19.4788 20.9958 19.475 20.5566C19.4663 19.5579 19.4663 18.5592 19.475 17.5606C19.4788 17.1451 19.71 16.8998 20.1163 16.8172C20.5038 16.7384 20.895 16.7696 21.2838 16.7747C21.6 16.7784 21.745 16.6633 21.7275 16.3354C21.7113 16.0238 21.7175 15.7109 21.7275 15.3993C21.745 14.8399 21.9988 14.5358 22.5488 14.5208C23.5163 14.4945 24.485 14.4932 25.4525 14.5208C26 14.5358 26.2525 14.8411 26.27 15.403C26.2788 15.6996 26.2913 15.9975 26.27 16.2916C26.2425 16.6683 26.41 16.7859 26.7663 16.7747C27.1388 16.7634 27.515 16.7396 27.8875 16.8172C28.295 16.9023 28.5175 17.1488 28.5263 17.5643C28.5363 18.0637 28.5288 18.563 28.5288 19.0623C28.5288 19.0623 28.53 19.0623 28.5313 19.0623L28.53 19.0611ZM27.055 19.031C27.055 18.5405 26.8104 18.2952 26.3213 18.2952C26.1025 18.2952 25.8838 18.2989 25.6663 18.2939C25.0663 18.2802 24.7813 18.0136 24.7488 17.4117C24.73 17.07 24.7388 16.7258 24.74 16.3829C24.74 16.1527 24.6338 16.0601 24.4013 16.0375C23.3 15.9274 23.2638 15.9537 23.2613 17.0362C23.2588 18.0924 23.0575 18.2852 22.01 18.2989C20.7875 18.3152 20.9638 18.0724 20.9475 19.4052C20.9475 19.4365 20.95 19.4678 20.9475 19.4991C20.9363 19.7381 21.0538 19.8345 21.2888 19.832C21.6788 19.827 22.0688 19.8257 22.4588 19.837C22.895 19.8495 23.1563 20.0823 23.2288 20.509C23.26 20.6917 23.255 20.8807 23.26 21.0684C23.2875 22.2048 23.0313 22.0846 24.375 22.0896C24.6325 22.0896 24.745 21.9783 24.7413 21.7242C24.7363 21.3963 24.7325 21.0684 24.7475 20.7418C24.7775 20.1036 25.0475 19.8458 25.6825 19.8345C25.9788 19.8295 26.2763 19.8145 26.5713 19.8382C26.9338 19.8658 27.1025 19.7369 27.0575 19.3627C27.045 19.2551 27.055 19.1449 27.055 19.0361V19.031Z" fill="#E51E1B"/>
</g>
<defs>
<clipPath id="clip0_29_377">
<rect width="48" height="48" fill="white"/>
</clipPath>
</defs>
</svg>
