<svg width="48" height="48" viewBox="0 0 48 48" fill="none" xmlns="http://www.w3.org/2000/svg">
<g clip-path="url(#clip0_29_393)">
<path d="M0 39.3326C0.25625 38.702 0.5825 38.1265 1.18125 37.7462C1.6425 37.4522 2.15125 37.3021 2.68875 37.2983C4.53125 37.2845 6.375 37.1982 8.21375 37.3396C9.61375 37.4472 10.615 38.5631 10.6275 39.9719C10.6425 41.7509 10.6425 43.5287 10.6275 45.3077C10.615 46.8528 9.46625 47.9725 7.90625 47.9787C6.22 47.985 4.5325 47.9675 2.84625 47.985C1.52 47.9988 0.62 47.3995 0.105 46.1922C0.075 46.1209 0.03625 46.0521 0.00125 45.9833C0.00125 43.7664 0.00125 41.5507 0.00125 39.3338L0 39.3326ZM5.30375 38.8008C4.5075 38.8008 3.71 38.7983 2.91375 38.8008C1.94375 38.8059 1.45 39.2687 1.4425 40.2221C1.43 41.8447 1.43 43.4674 1.4425 45.09C1.45 45.9858 1.89625 46.4762 2.78875 46.4912C4.46 46.5212 6.1325 46.52 7.8025 46.4912C8.7 46.4762 9.14625 45.987 9.15125 45.0963C9.16125 43.4573 9.16125 41.8197 9.15125 40.1808C9.14625 39.29 8.645 38.8071 7.73875 38.7996C6.92625 38.7933 6.11375 38.7983 5.30125 38.7983L5.30375 38.8008Z" fill="#E51E1B"/>
<path d="M0.5 42.5L1.5 38.5L8.5 38L10 39.5V43L9 47H1.5L0.5 42.5Z" fill="#E51E1B"/>
<path d="M35.5625 21.4947C35.5663 22.0164 35.3025 22.3567 34.8725 22.3867C34.4738 22.4143 34.18 22.1315 34.085 21.6298C33.9238 20.7766 33.5188 20.4438 32.6313 20.4388C32.1475 20.4363 31.6638 20.4476 31.18 20.4338C30.6788 20.4188 30.3688 20.1448 30.3475 19.7282C30.325 19.2803 30.6138 18.9463 31.1325 18.9263C31.8788 18.8962 32.63 18.8512 33.3738 18.9826C34.5925 19.199 35.5525 20.3025 35.5613 21.4947H35.5625Z" fill="#E51E1B"/>
<path d="M19.6375 28.1192C20.0588 28.0804 20.4788 28.0979 20.8963 28.1642C22.1263 28.3594 23.125 29.5391 23.095 30.7577C23.0837 31.2143 22.8188 31.5321 22.42 31.5684C22.0325 31.6034 21.71 31.3219 21.625 30.8753C21.4425 29.9232 21.075 29.623 20.09 29.6205C19.6375 29.6205 19.185 29.6317 18.7338 29.6142C18.2663 29.5967 17.9788 29.319 17.9613 28.9048C17.9425 28.477 18.1838 28.1817 18.6588 28.1254C18.9813 28.0879 19.3113 28.1179 19.6388 28.1179L19.6375 28.1192Z" fill="#E51E1B"/>
<path d="M28.2525 47.9775C27.8375 47.9575 27.3225 48.0263 26.8162 47.8774C25.6962 47.5471 24.8675 46.4524 24.9062 45.3327C24.9212 44.8786 25.1562 44.5946 25.55 44.5533C25.9625 44.5108 26.2825 44.7647 26.3712 45.2089C26.5687 46.1935 26.9262 46.4925 27.93 46.505C28.3975 46.5112 28.8662 46.4987 29.3337 46.5112C29.8375 46.525 30.1225 46.8002 30.1212 47.2431C30.1212 47.686 29.8337 47.9587 29.3325 47.9762C29.005 47.9875 28.6775 47.9787 28.2525 47.9787V47.9775Z" fill="#E51E1B"/>
<path d="M24.905 22.5669C24.905 22.2078 24.8975 21.85 24.9062 21.491C24.9362 20.37 25.7375 19.3504 26.8225 19.0451C27.3475 18.8975 27.745 19.0714 27.8862 19.513C28.0212 19.9321 27.82 20.2624 27.3037 20.4689C26.6562 20.7291 26.3837 21.1207 26.3762 21.8288C26.3687 22.4681 26.3812 23.1074 26.3712 23.7467C26.3637 24.2784 26.085 24.5799 25.63 24.5774C25.1762 24.5749 24.9137 24.2759 24.9025 23.7354C24.895 23.3463 24.9012 22.956 24.9012 22.5669H24.9037H24.905Z" fill="#E51E1B"/>
<path d="M35.5625 44.3306C35.5625 44.7047 35.5712 45.08 35.5612 45.4541C35.53 46.5975 34.645 47.6572 33.5262 47.9037C33.0837 48.0012 32.725 47.8186 32.5875 47.4245C32.4525 47.0392 32.6237 46.6438 33.0687 46.4987C33.8562 46.241 34.1162 45.6855 34.0962 44.9173C34.0825 44.3869 34.0925 43.8564 34.0937 43.326C34.0962 42.6829 34.3512 42.3301 34.8175 42.3214C35.2962 42.3114 35.5637 42.6767 35.5662 43.3473C35.5675 43.675 35.5662 44.0028 35.5662 44.3306H35.5625Z" fill="#E51E1B"/>
<path d="M15.6825 47.9762C14.77 48.0701 13.8 47.9012 13.07 47.0354C12.6413 46.5275 12.405 45.9507 12.4388 45.2764C12.46 44.8598 12.6725 44.6058 13.09 44.5533C13.4988 44.502 13.8513 44.7384 13.8888 45.1613C13.9738 46.1434 14.5613 46.5312 15.5563 46.5062C15.9775 46.4962 16.3988 46.495 16.82 46.5112C17.2863 46.5287 17.5825 46.8127 17.5913 47.2206C17.6013 47.6434 17.2863 47.955 16.8113 47.9737C16.4838 47.9862 16.1563 47.9762 15.6838 47.9762H15.6825Z" fill="#E51E1B"/>
<path d="M23.0963 44.4782C23.0963 44.7747 23.1013 45.07 23.0963 45.3665C23.0713 46.5913 22.2113 47.6472 21.0163 47.9249C20.5063 48.0438 20.075 47.8311 19.965 47.407C19.8575 46.9916 20.0925 46.6401 20.5938 46.4712C21.3475 46.216 21.6138 45.8569 21.6238 45.0587C21.6313 44.4982 21.6188 43.9365 21.6288 43.376C21.6388 42.8568 21.9362 42.5353 22.3762 42.5441C22.8012 42.5516 23.08 42.8593 23.095 43.356C23.1062 43.7301 23.0975 44.1041 23.0975 44.4782H23.0963Z" fill="#E51E1B"/>
<path d="M12.4612 31.6334C12.4612 31.1981 12.3925 30.7502 12.475 30.3298C12.6862 29.2464 13.3525 28.5308 14.42 28.213C14.9775 28.0466 15.415 28.2243 15.5537 28.6459C15.7037 29.1013 15.4625 29.4553 14.8625 29.6605C14.23 29.8757 13.9337 30.261 13.9137 30.9466C13.8962 31.5371 13.9137 32.1289 13.905 32.7206C13.8962 33.2373 13.6025 33.5551 13.16 33.5513C12.7112 33.5476 12.4475 33.2448 12.4362 32.7069C12.4287 32.3491 12.435 31.9913 12.435 31.6334C12.4437 31.6334 12.4525 31.6334 12.4612 31.6334Z" fill="#E51E1B"/>
<path d="M24.9012 38.9247C24.9012 38.1616 24.8962 37.3997 24.9025 36.6365C24.9075 36.0948 25.2162 35.7482 25.6587 35.7645C26.0862 35.7795 26.37 36.1135 26.3725 36.6352C26.3775 38.1766 26.3787 39.7179 26.3725 41.2592C26.37 41.8034 26.0625 42.1425 25.6112 42.1325C25.185 42.1225 24.9087 41.7922 24.9037 41.2617C24.8962 40.4836 24.9025 39.7054 24.9025 38.9272L24.9012 38.9247Z" fill="#E51E1B"/>
<path d="M26.375 30.1534C26.375 30.9316 26.38 31.7098 26.3737 32.4879C26.3687 33.0309 26.065 33.3712 25.6187 33.3587C25.1887 33.3474 24.9075 33.0209 24.905 32.4954C24.8987 30.9554 24.8987 29.414 24.905 27.874C24.9075 27.316 25.2012 26.9882 25.6562 27.0032C26.0912 27.017 26.3687 27.3398 26.3737 27.8665C26.3812 28.6284 26.3762 29.3915 26.3762 30.1534H26.375Z" fill="#E51E1B"/>
<path d="M35.565 28.0278C35.565 28.7772 35.57 29.5254 35.5637 30.2748C35.5587 30.8165 35.2937 31.1317 34.8562 31.1418C34.39 31.153 34.0975 30.834 34.095 30.2785C34.0887 28.7347 34.0887 27.1896 34.095 25.6458C34.0975 25.1291 34.395 24.7975 34.8262 24.7963C35.2587 24.795 35.5562 25.1253 35.5612 25.642C35.57 26.4377 35.5637 27.2334 35.5637 28.0291L35.565 28.0278Z" fill="#E51E1B"/>
<path d="M35.565 36.7203C35.565 37.4997 35.57 38.2804 35.5625 39.0598C35.5575 39.5815 35.2688 39.9106 34.8375 39.9156C34.4038 39.9206 34.0975 39.5903 34.095 39.0773C34.0888 37.5173 34.0875 35.9584 34.095 34.3983C34.0975 33.8691 34.3863 33.5689 34.8425 33.5764C35.2813 33.5839 35.5525 33.8741 35.5588 34.3808C35.5688 35.1602 35.5613 35.9409 35.5625 36.7203H35.565Z" fill="#E51E1B"/>
<path d="M23.0988 37.0669C23.0988 37.815 23.1038 38.5644 23.0975 39.3125C23.0925 39.863 22.7988 40.2033 22.3538 40.1958C21.91 40.1895 21.63 39.8505 21.6275 39.2913C21.6238 37.81 21.6238 36.3287 21.6275 34.8475C21.6288 34.2519 21.9125 33.9091 22.3763 33.9167C22.8413 33.9254 23.0963 34.2557 23.1 34.8675C23.1038 35.6006 23.1 36.3337 23.1 37.0656L23.0988 37.0669Z" fill="#E51E1B"/>
<path d="M13.9062 39.0936C13.9062 39.8405 13.9125 40.5886 13.9037 41.3355C13.8975 41.876 13.6312 42.1687 13.1725 42.17C12.7125 42.1712 12.44 41.8785 12.4375 41.3393C12.4312 39.813 12.4312 38.2866 12.4375 36.7603C12.44 36.2186 12.7075 35.9271 13.1675 35.9259C13.6275 35.9259 13.8975 36.2186 13.9037 36.7553C13.9125 37.5335 13.9062 38.3129 13.9062 39.0911V39.0936Z" fill="#E51E1B"/>
<path d="M45.6692 2C46.8717 2.41536 47.728 3.17226 47.9992 4.45711C48.1467 5.15521 48.0055 5.85706 47.9255 6.55266C47.5955 9.40011 47.2442 12.2463 46.9217 15.095C46.693 17.1117 45.0967 18.5968 43.0867 18.623C41.0667 18.6493 39.4267 17.2243 39.1705 15.1976C38.9617 13.5437 38.778 11.886 38.5867 10.2296C38.5267 9.70537 38.7592 9.35257 39.193 9.28501C39.653 9.2137 40.0017 9.49769 40.0692 10.0394C40.263 11.6008 40.4655 13.1621 40.623 14.7284C40.7655 16.1384 41.7055 17.1155 43.0117 17.138C44.2942 17.1593 45.2855 16.1897 45.448 14.771C45.813 11.597 46.1842 8.42552 46.5542 5.25154C46.643 4.48464 46.1042 3.71648 45.3455 3.52506C44.9305 3.41997 44.508 3.44249 44.0867 3.44249C43.1655 3.44249 42.243 3.42623 41.3217 3.44875C40.018 3.48127 39.368 4.28697 39.5617 5.57807C39.6167 5.94714 39.6667 6.31996 39.6817 6.69278C39.6992 7.10814 39.4167 7.43467 39.038 7.49097C38.6605 7.54602 38.2892 7.31457 38.2092 6.89796C38.0855 6.25616 37.963 5.60059 38.0105 4.95004C38.1117 3.55759 38.8355 2.59676 40.163 2.11135C40.2505 2.07882 40.3342 2.03878 40.4205 2.00125C42.1705 2.00125 43.9205 2.00125 45.6705 2.00125L45.6692 2Z" fill="#E51E1B"/>
<path d="M43.0292 26.6487C41.023 26.6437 39.3592 24.976 39.3655 22.9756C39.3717 20.9688 41.0455 19.2974 43.038 19.3074C45.0405 19.3187 46.7167 20.9951 46.713 22.9831C46.7092 24.9735 45.0205 26.6537 43.028 26.6487H43.0292ZM40.9005 22.9893C40.9042 24.2041 41.8205 25.1174 43.0342 25.1149C44.2405 25.1124 45.1755 24.1866 45.1792 22.9906C45.183 21.7683 44.2442 20.8375 43.0117 20.8412C41.8055 20.845 40.8967 21.7695 40.9005 22.9893Z" fill="#E51E1B"/>
</g>
<defs>
<clipPath id="clip0_29_393">
<rect width="48" height="48" fill="white"/>
</clipPath>
</defs>
</svg>
