<svg width="48" height="48" viewBox="0 0 48 48" fill="none" xmlns="http://www.w3.org/2000/svg">
<g clip-path="url(#clip0_29_380)">
<path d="M48 25.8901C47.8322 27.4343 47.6093 28.9691 47.2011 30.4708C46.435 33.2853 45.2125 35.8837 43.5266 38.259C43.1301 38.8163 42.5916 38.9414 42.1094 38.6238C41.6354 38.311 41.5322 37.6865 41.9158 37.1233C42.9518 35.6027 43.8645 34.0172 44.5379 32.2983C45.3615 30.1957 45.8613 28.0246 46.0326 25.765C46.3153 22.052 45.6841 18.5044 44.1848 15.1173C42.9377 12.2981 41.1603 9.85075 38.8878 7.77293C35.6299 4.79433 31.8088 2.97741 27.4703 2.32101C21.9704 1.48988 16.8236 2.50282 12.0944 5.50385C11.7906 5.69629 11.4938 5.90289 11.1782 6.07171C10.6725 6.34089 10.1493 6.20394 9.86186 5.75768C9.57912 5.3185 9.66946 4.76481 10.1411 4.4248C10.7113 4.01396 11.3025 3.62673 11.9103 3.27492C14.3822 1.8476 17.0242 0.87126 19.834 0.386042C24.8224 -0.474601 29.6642 0.084994 34.2185 2.29622C41.8102 5.98199 46.3012 12.0891 47.7595 20.4476C47.8616 21.0332 47.9226 21.6258 48.0023 22.2161V25.8925L48 25.8901Z" fill="#E51E1B"/>
<path d="M23.0521 40.4596C23.0521 39.344 23.0415 38.2283 23.0591 37.1139C23.0638 36.7821 22.9453 36.6464 22.6274 36.5743C21.5645 36.3311 21.0025 35.6134 20.9908 34.5296C20.9872 34.1683 20.9743 33.8059 20.9943 33.4458C21.0107 33.1459 20.8734 33.0114 20.6153 32.8827C17.3808 31.2676 15.6082 28.6904 15.5601 25.0047C15.5425 23.7167 15.5483 22.4286 15.5636 21.1406C15.5671 20.816 15.4779 20.6412 15.1623 20.5031C13.6184 19.829 12.8336 18.4831 12.9462 16.7748C13.04 15.3664 14.1065 14.1115 15.6258 13.6687C15.9472 13.5755 16.034 13.4196 16.0317 13.1044C16.0211 11.3135 16.0188 9.52255 16.0305 7.73161C16.0411 6.21692 17.0922 5.06232 18.608 4.86988C19.9525 4.6987 21.2829 5.66559 21.6454 7.0693C21.717 7.34792 21.7111 7.63008 21.7111 7.91224C21.7134 9.59338 21.724 11.2745 21.7041 12.9545C21.6994 13.3712 21.7979 13.5401 22.2484 13.5294C23.4498 13.5011 24.6523 13.5082 25.8536 13.5259C26.222 13.5318 26.3405 13.4055 26.337 13.036C26.3218 11.2769 26.3229 9.51664 26.3335 7.75758C26.3429 6.21574 27.4034 5.04697 28.9321 4.86634C30.2625 4.70932 31.5706 5.65969 31.9413 7.04333C32.0164 7.32195 32.0129 7.60293 32.0141 7.88508C32.0164 9.61345 32.0246 11.3406 32.0082 13.069C32.0047 13.4326 32.1244 13.5861 32.4728 13.6853C33.9346 14.1008 35.0092 15.3912 35.0961 16.7855C35.2005 18.4631 34.4344 19.8113 32.9526 20.4653C32.5948 20.6235 32.4681 20.8089 32.4751 21.1973C32.4963 22.5951 32.5197 23.9941 32.4728 25.3907C32.3813 28.1651 31.1424 30.3444 28.9485 31.9902C28.4605 32.3561 27.9501 32.695 27.3718 32.9063C27.1313 32.9937 27.0386 33.153 27.0468 33.4092C27.0609 33.8012 27.0538 34.1943 27.0468 34.5874C27.0304 35.565 26.4731 36.3217 25.5357 36.546C25.1497 36.6381 25.0348 36.8116 25.0371 37.1894C25.05 39.2153 25.0887 41.2435 25.0301 43.2682C24.9796 45.0025 26.3569 46.32 28.2998 45.9151C31.3219 45.2847 34.1059 44.1171 36.6365 42.3391C36.701 42.2943 36.7632 42.247 36.83 42.2057C37.4002 41.8515 37.9692 41.9236 38.286 42.3875C38.6203 42.8775 38.4842 43.4512 37.927 43.8514C35.0221 45.9363 31.8099 47.3011 28.2998 47.928C25.5697 48.4156 23.079 46.3047 23.0544 43.5221C23.0462 42.5009 23.0532 41.4797 23.0521 40.4585V40.4596ZM24.007 20.8136C22.0243 20.8136 20.0428 20.8266 18.0601 20.8042C17.6002 20.7994 17.4559 20.9529 17.4864 21.3992C17.5193 21.8832 17.4923 22.372 17.4946 22.8596C17.4993 23.9894 17.4207 25.1263 17.6319 26.2431C18.3088 29.8155 21.48 32.0551 25.077 31.525C27.9302 31.1047 30.259 28.5771 30.4772 25.7071C30.5863 24.2786 30.496 22.8501 30.5523 21.4228C30.5711 20.9529 30.4373 20.7971 29.954 20.803C27.9724 20.829 25.9897 20.8136 24.007 20.8136ZM24 18.7972C26.4954 18.7972 28.9908 18.8066 31.485 18.7925C32.6054 18.7866 33.3316 17.8326 33.0805 16.7512C32.9034 15.9886 32.278 15.5376 31.3594 15.5376C26.9154 15.5341 22.4702 15.5352 18.0261 15.5352C17.4806 15.5352 16.9339 15.5234 16.3895 15.5482C15.6926 15.5789 15.1107 16.0866 14.9559 16.7607C14.7071 17.8421 15.4369 18.7877 16.562 18.7936C19.0409 18.8066 21.521 18.7972 24 18.7972ZM19.7706 10.506C19.7706 9.72206 19.773 8.93816 19.7706 8.15544C19.7671 7.3007 19.4644 6.87451 18.8661 6.87569C18.269 6.87569 17.9651 7.30188 17.9639 8.15662C17.9616 9.50484 17.9639 10.8531 17.9639 12.2001C17.9639 13.5471 17.9639 13.5365 19.2896 13.5271C19.6475 13.5247 19.7894 13.4232 19.7789 13.0454C19.7566 12.2001 19.7718 11.3524 19.7718 10.506H19.7706ZM30.0748 10.5756C30.0748 10.3879 30.0748 10.199 30.0748 10.0113C30.0724 9.28997 30.0936 8.56864 30.0619 7.84849C30.0349 7.23576 29.6935 6.88513 29.1926 6.87451C28.6693 6.8627 28.3303 7.22042 28.2739 7.85085C28.261 7.99134 28.2669 8.13301 28.2669 8.27349C28.2669 9.58984 28.2669 10.9062 28.2669 12.2237C28.2669 13.5566 28.2669 13.5471 29.6161 13.5259C29.9528 13.5212 30.0889 13.422 30.0807 13.0666C30.0607 12.2367 30.0748 11.4056 30.0748 10.5744V10.5756ZM23.9812 34.6347C24.2147 34.6347 24.4493 34.624 24.6816 34.637C25.287 34.6701 25.0746 34.2155 25.1063 33.9157C25.1474 33.519 24.8693 33.5308 24.6136 33.5698C24.2405 33.6264 23.8745 33.6241 23.499 33.5733C22.9688 33.5025 22.9418 33.5627 22.9207 34.1211C22.9054 34.5024 23.0239 34.6807 23.4204 34.6382C23.6058 34.6181 23.7935 34.6347 23.9812 34.6347Z" fill="#E51E1B"/>
<path d="M7.85687 44.5751C4.69277 44.5834 2.72884 41.2365 4.2317 38.5872C4.40651 38.2791 4.39243 38.0654 4.19885 37.7833C2.23728 34.9251 0.960842 31.7788 0.362514 28.3587C-0.0481033 26.0105 -0.103243 23.6517 0.170111 21.2799C0.553744 17.9566 1.59319 14.8576 3.25678 11.9699C3.60874 11.3595 4.00176 10.7716 4.40182 10.1919C4.73266 9.71261 5.30987 9.59928 5.76272 9.88262C6.20149 10.1577 6.34697 10.7468 6.04311 11.2533C5.53629 12.0997 4.97316 12.9108 4.51913 13.7915C3.1946 16.3569 2.38392 19.0734 2.11878 21.9529C1.67649 26.7413 2.63733 31.2228 5.02009 35.3914C5.24534 35.7857 5.52456 36.1493 5.74043 36.5484C5.91171 36.8636 6.10646 36.8305 6.3939 36.7325C8.0481 36.1706 9.7023 36.6475 10.8274 37.9899C12.7573 40.2932 11.4328 43.9589 8.47749 44.4889C8.23229 44.5326 7.98357 44.5574 7.85921 44.5751H7.85687ZM7.7372 42.5622C8.87872 42.5575 9.75861 41.6733 9.75627 40.5328C9.75392 39.4089 8.85408 38.4928 7.73838 38.4774C6.62502 38.4621 5.68177 39.4207 5.68881 40.5564C5.69702 41.6886 6.59334 42.5658 7.7372 42.5611V42.5622Z" fill="#E51E1B"/>
<path d="M8.58543 7.84614C8.5866 8.37622 8.1361 8.83783 7.60699 8.84727C7.07788 8.85672 6.62972 8.39983 6.63559 7.8544C6.64145 7.31016 7.08961 6.87216 7.62928 6.88279C8.15135 6.89341 8.58426 7.32905 8.58543 7.84496V7.84614Z" fill="#E51E1B"/>
<path d="M39.3536 40.5588C39.3454 40.0098 39.7689 39.5577 40.3015 39.5471C40.8259 39.5364 41.2823 39.9933 41.2811 40.5305C41.28 41.07 40.8377 41.5139 40.3027 41.5139C39.7877 41.5139 39.3618 41.0865 39.3536 40.5588Z" fill="#E51E1B"/>
<path d="M24.8365 24.1346C26.3734 24.386 26.6221 24.8996 25.9053 26.1853C25.3632 27.1569 24.8283 28.1332 24.2581 29.0883C23.8193 29.8226 22.8902 29.8085 22.5171 29.0918C22.3388 28.7495 22.3974 28.4201 22.5699 28.1025C22.8385 27.6067 23.1072 27.1096 23.3946 26.6256C23.5636 26.3399 23.6082 26.1723 23.1788 26.1982C22.6309 26.2313 22.0959 26.1947 21.8296 25.595C21.5727 25.0165 21.9246 24.6115 22.2496 24.2007C22.9207 23.3542 23.5894 22.5054 24.2534 21.653C24.5467 21.2764 24.9045 21.0627 25.3891 21.1713C26.0531 21.3201 26.3311 22.0993 25.9182 22.7143C25.5979 23.1901 25.2248 23.6305 24.8377 24.1346H24.8365Z" fill="#E51E1B"/>
</g>
<defs>
<clipPath id="clip0_29_380">
<rect width="48" height="48" fill="white"/>
</clipPath>
</defs>
</svg>
