<svg width="48" height="42" viewBox="0 0 48 42" fill="none" xmlns="http://www.w3.org/2000/svg">
<g clip-path="url(#clip0_63_76)">
<path d="M14.3176 17.4503C14.2989 17.0197 14.067 16.7669 13.6993 16.7723C13.3472 16.7778 13.1256 17.0219 13.1029 17.4318C13.0977 17.5266 13.1008 17.6214 13.1008 17.7174V18.9938H14.3196V17.858C14.3196 17.7228 14.3238 17.5866 14.3176 17.4503ZM46.6797 8.28751C45.6596 8.31149 44.6375 8.27334 43.6175 8.30386C43.2116 8.31585 43.0997 8.17305 43.1267 7.76865C43.1577 7.32392 43.137 6.87374 43.1329 6.42573C43.1163 4.74927 41.8395 3.41398 40.2385 3.39981C39.6835 3.39436 39.1274 3.39 38.5723 3.40199C38.3238 3.40635 38.2202 3.31152 38.2264 3.04664C38.2358 2.70764 38.2471 2.36537 38.2088 2.02964C38.0877 0.989749 37.4902 0.35426 36.583 0H19.6517C18.466 0.461083 17.9358 1.3669 18.0041 2.6793C18.0103 2.80138 17.9979 2.92455 18.0062 3.04555C18.0248 3.30934 17.913 3.40635 17.6634 3.40199C17.0949 3.39 16.5264 3.39436 15.9579 3.4009C14.4066 3.41834 13.1225 4.76126 13.1029 6.38431C13.0966 6.85957 13.0759 7.337 13.108 7.80898C13.136 8.22102 12.9755 8.30931 12.6172 8.30168C11.5972 8.27988 10.5751 8.31149 9.55504 8.28751C8.92128 8.27225 8.48946 8.53604 8.23471 9.13773V17.3795C8.49049 17.9812 8.92335 18.2678 9.55815 18.2264C9.85432 18.2079 10.1536 18.2242 10.4508 18.2231C11.3269 18.2188 11.7556 17.7653 11.7566 16.8377C11.7577 14.7438 11.7566 12.6487 11.7566 10.5548C11.7566 9.55849 11.7566 9.56938 12.7011 9.56829C13.0014 9.56829 13.1132 9.6555 13.107 9.98469C13.0884 10.909 13.0997 11.8345 13.1008 12.7588C13.1008 13.3572 13.0925 13.9557 13.107 14.5541C13.1163 14.94 13.3876 15.2038 13.7242 15.1961C14.0452 15.1885 14.2886 14.9323 14.3155 14.5661C14.3248 14.4298 14.3196 14.2936 14.3196 14.1573C14.3196 11.6688 14.3144 9.18024 14.3227 6.6917C14.3269 5.43163 15.0435 4.68168 16.2375 4.68059C24.1595 4.67841 32.0815 4.67732 40.0034 4.68059C41.1788 4.68168 41.9099 5.42618 41.9109 6.65682C41.9182 14.0004 41.913 21.3439 41.9202 28.6874C41.9202 29.0057 41.8281 29.1147 41.5205 29.1115C40.4083 29.0962 39.2941 29.118 38.1819 29.1006C37.5181 29.0897 37.078 29.372 36.8253 30.0238C36.4877 30.8926 36.1243 31.7493 35.7691 32.6094C35.4232 33.4476 35.7452 33.9697 36.6161 33.9708C38.2337 33.9708 39.8522 33.9785 41.4698 33.9643C41.797 33.961 41.9244 34.0406 41.9234 34.4145C41.9161 35.8806 41.2502 36.6054 39.8554 36.6065C35.3994 36.6076 30.9423 36.6076 26.4864 36.6065V37.8884C28.4311 37.8906 30.3759 37.8895 32.3217 37.8829C32.6158 37.8819 32.709 38.0018 32.6997 38.2928C32.6862 38.6732 32.6852 39.0547 32.7007 39.4352C32.7587 40.898 33.6524 41.8016 35.0359 41.8038C36.3044 41.8038 37.573 41.8092 38.8415 41.8016C39.9278 41.7951 40.7905 40.9961 40.9624 39.8668C41.0494 39.2978 41.0007 38.7277 41.0121 38.1576C41.0162 37.9375 41.0535 37.7805 41.2772 37.6769C42.5519 37.0872 43.1412 36.0517 43.1391 34.5856C43.1287 26.5357 43.1329 18.4848 43.136 10.4338C43.136 9.43858 43.0014 9.58683 43.9603 9.57592C44.476 9.57047 44.477 9.57592 44.4781 10.1057C44.4781 12.3904 44.475 14.6751 44.4801 16.9598C44.4822 17.7294 44.942 18.2079 45.6669 18.2221C46.0034 18.2286 46.341 18.2068 46.6766 18.2275C47.3103 18.2667 47.7442 17.9822 48 17.3795V9.13773C47.7452 8.53604 47.3134 8.27225 46.6797 8.28751ZM10.0397 16.9445C9.97651 16.9336 9.91024 16.9358 9.84603 16.9434C9.5333 16.986 9.41524 16.8606 9.42042 16.514C9.43802 15.4152 9.42663 14.3165 9.42663 13.2177C9.42663 12.119 9.43802 11.1009 9.42042 10.0425C9.41524 9.70237 9.48877 9.55303 9.84707 9.5672C10.6258 9.59664 10.5357 9.50289 10.5367 10.2877C10.5399 12.337 10.5264 14.3851 10.5471 16.4333C10.5512 16.8573 10.4239 17.0067 10.0397 16.9445ZM35.9524 3.39872H28.0749C25.3069 3.39872 22.5388 3.39 19.7708 3.40744C19.3731 3.40962 19.2644 3.28644 19.2685 2.87659C19.2841 1.46718 19.4746 1.25245 20.825 1.25245H35.5723C35.7401 1.25245 35.9099 1.24591 36.0756 1.26989C36.6482 1.35382 36.9392 1.7059 36.9558 2.31414C36.9758 3.03719 36.6413 3.39872 35.9524 3.39872ZM41.5568 32.6944C40.8723 32.6813 40.1878 32.69 39.5033 32.69C38.8188 32.69 38.1332 32.6846 37.4487 32.6922C37.1888 32.6955 37.1256 32.6061 37.2333 32.3521C37.4612 31.8191 37.6776 31.2828 37.8909 30.7432C37.9686 30.5481 38.0783 30.4359 38.2937 30.4369C39.3925 30.4424 40.4902 30.4435 41.5889 30.4369C41.8478 30.4348 41.9223 30.5601 41.9171 30.8119C41.9068 31.3144 41.9037 31.8169 41.9192 32.3183C41.9275 32.6039 41.8239 32.6999 41.5568 32.6944ZM39.7425 39.4395C39.729 40.0957 39.3925 40.4979 38.7628 40.511C37.4974 40.5372 36.2299 40.5361 34.9644 40.5132C34.3162 40.5012 33.9776 40.099 33.9662 39.4177C33.9599 39.0242 33.9744 38.6307 33.962 38.2372C33.9527 37.9691 34.0594 37.8808 34.3069 37.884C35.1591 37.8938 36.0124 37.8884 36.8657 37.8884C37.7055 37.8873 38.5454 37.8949 39.3852 37.8829C39.6524 37.8797 39.7601 37.9734 39.7487 38.259C39.7332 38.6525 39.7508 39.046 39.7425 39.4395ZM46.8132 16.5532C46.8143 16.8595 46.7107 16.9543 46.4291 16.9478C45.583 16.9282 45.7031 17.0208 45.698 16.1913C45.6928 15.2147 45.6969 14.238 45.6969 13.2602C45.6969 12.1757 45.7083 11.09 45.6907 10.0043C45.6855 9.66095 45.7994 9.53232 46.1153 9.57265C46.2168 9.58574 46.3224 9.58465 46.4249 9.57265C46.7024 9.54213 46.8143 9.64787 46.8132 9.95962C46.8029 12.1571 46.8029 14.3557 46.8132 16.5532Z" fill="#E51E1B"/>
<path d="M39.2226 8.29405C35.534 8.29296 31.8454 8.29405 28.1567 8.29405C24.4681 8.29405 20.7007 8.29296 16.9738 8.29405C15.9693 8.29405 15.4318 8.85214 15.4318 9.89421C15.4308 12.9278 15.4298 15.9602 15.4308 18.9938H16.6496V10.1994C16.6496 9.59337 16.6672 9.57484 17.2358 9.57484H39.0186C39.5602 9.57484 39.5841 9.601 39.5851 10.1798V22.8667C39.5841 23.4455 39.5623 23.4695 39.0186 23.4695C35.3818 23.4706 31.7439 23.4706 28.107 23.4706H26.4864V24.7513C30.7446 24.7513 35.0017 24.7513 39.2599 24.7503C40.2789 24.7503 40.8029 24.1932 40.8039 23.1119C40.805 18.7191 40.805 14.3274 40.8039 9.93564C40.8029 8.83797 40.2789 8.29405 39.2226 8.29405Z" fill="#E51E1B"/>
<path d="M28.9717 28.4215C28.1432 28.4226 27.3158 28.4226 26.4864 28.4226V27.1418C27.3138 27.1418 28.1422 27.1429 28.9696 27.144C29.447 27.144 29.7028 27.3761 29.7038 27.7827C29.7049 28.1904 29.4491 28.4204 28.9717 28.4215Z" fill="#E51E1B"/>
<path d="M35.243 28.7834C34.6372 30.2549 34.0097 31.7167 33.3966 33.186C33.1667 33.7354 32.7825 33.9817 32.2078 33.9752C30.8357 33.961 29.4636 33.9708 28.0925 33.9708C27.5571 33.9708 27.0217 33.9697 26.4864 33.9687V32.69C28.2727 32.6857 30.0601 32.689 31.8464 32.6955C32.1343 32.6977 32.2906 32.6018 32.4046 32.3205C32.8778 31.1586 33.3718 30.0064 33.8554 28.8488C34.0262 28.4411 34.0159 28.4248 33.5861 28.4237C33.0424 28.4215 32.4998 28.4258 31.9562 28.4215C31.486 28.4182 31.2106 28.185 31.2054 27.7947C31.1992 27.4001 31.4757 27.1472 31.9354 27.144C32.6986 27.1385 33.4619 27.1352 34.2251 27.1451C35.0991 27.156 35.5909 27.9375 35.243 28.7834Z" fill="#E51E1B"/>
<path d="M28.1194 7.12663C26.1529 7.12663 24.1864 7.12663 22.2199 7.12663C22.078 7.12663 21.932 7.13753 21.7943 7.10701C21.4743 7.03507 21.2993 6.80725 21.3065 6.46825C21.3138 6.14778 21.4877 5.93414 21.7912 5.86655C21.9154 5.83821 22.049 5.84693 22.1774 5.84693C26.1363 5.84693 30.0942 5.84693 34.0532 5.84693C34.1826 5.84693 34.3152 5.83712 34.4394 5.86546C34.7604 5.9385 34.9344 6.16522 34.9272 6.50422C34.9209 6.82469 34.7459 7.03943 34.4425 7.10592C34.3058 7.13535 34.1588 7.12554 34.0169 7.12554C32.0504 7.12554 30.0839 7.12554 28.1174 7.12554L28.1194 7.12663Z" fill="#E51E1B"/>
<path d="M31.4311 30.5492C31.4394 30.9547 31.1598 31.1934 30.6596 31.1956C29.8053 31.1989 28.952 31.1967 28.0977 31.1967C27.5613 31.1967 27.0238 31.1978 26.4864 31.1978V29.917C27.8844 29.9148 29.2824 29.9159 30.6793 29.917C31.1495 29.917 31.4228 30.1557 31.4311 30.5481V30.5492Z" fill="#E51E1B"/>
<path d="M18.6565 7.12227C18.3148 7.13099 18.0279 6.85304 18.0176 6.50313C18.0072 6.15759 18.2858 5.85784 18.6244 5.85021C18.9672 5.84258 19.253 6.11944 19.2634 6.46934C19.2737 6.81379 18.9941 7.11464 18.6565 7.12227Z" fill="#E51E1B"/>
<path d="M38.2171 6.49549C38.2109 6.84321 37.9251 7.12662 37.5844 7.12226C37.2458 7.1179 36.9641 6.8225 36.9703 6.47696C36.9765 6.12924 37.2613 5.84583 37.603 5.85019C37.9417 5.85455 38.2233 6.14995 38.2171 6.49549Z" fill="#E51E1B"/>
<path d="M24.903 31.5542C24.8222 31.2588 24.7218 30.8926 24.5219 30.5678C24.4577 30.4642 24.3945 30.353 24.3334 30.2462C24.2143 30.0369 24.0922 29.82 23.942 29.6216C23.6023 29.1736 23.4812 28.6395 23.3528 28.0749C23.3258 27.9593 23.3 27.8449 23.272 27.7304C23.389 27.7326 23.506 27.7304 23.6189 27.7293H23.6955C24.3117 27.7217 24.3935 27.2944 24.3997 27.1113C24.4132 26.7123 24.1532 26.4485 23.7204 26.4213C23.5806 26.4126 23.4398 26.4136 23.3051 26.4158C23.2565 26.4158 23.2068 26.4158 23.1591 26.4158C23.0141 26.4158 22.9479 26.3624 22.9137 26.2207C22.8215 25.8337 22.7304 25.4457 22.6393 25.0576C22.4322 24.1845 22.2199 23.282 22.0045 22.3947C21.6845 21.0758 20.6386 20.2234 19.341 20.2234C16.2861 20.2234 13.2313 20.2234 10.1774 20.2234H5.56505C5.39937 20.2234 5.22643 20.2234 5.04935 20.268C3.92059 20.5493 3.20606 21.2632 2.92853 22.3882C2.65308 23.5011 2.36312 24.7263 2.01725 26.2414C1.97479 26.43 1.9489 26.4344 1.81842 26.4245C1.58646 26.406 1.29754 26.3831 1.01587 26.4551C0.690702 26.5379 0.50948 26.7919 0.531226 27.1342C0.552973 27.4721 0.79115 27.7086 1.12253 27.725C1.30271 27.7337 1.48187 27.7348 1.65894 27.7293C1.63513 27.8274 1.61234 27.9255 1.58956 28.0236C1.44873 28.6362 1.31514 29.215 0.941306 29.6968C0.803577 29.8734 0.693808 30.0696 0.588182 30.2582C0.538475 30.3454 0.488769 30.4337 0.436991 30.5198C0.143929 31.0016 -0.00311949 31.5281 -1.28237e-05 32.0851C0.00412939 33.0792 0.00309384 34.0886 0.00309384 35.0663V36.2555V36.8006C0.00309384 37.1624 0.00412939 37.5254 0.00205828 37.8873C-1.28238e-05 38.2536 0.181209 38.5108 0.474271 38.5577C0.499124 38.562 0.514658 38.5664 0.522942 38.5697C0.525013 38.5838 0.527084 38.6122 0.527084 38.6645C0.521906 39.433 0.522942 40.2134 0.525013 40.9688V41.1792C0.526049 41.7678 0.741444 41.9978 1.29547 41.9978C2.56195 41.9989 3.82947 41.9989 5.09595 41.9978C5.63237 41.9967 5.86537 41.7591 5.87779 41.2032C5.88711 40.7933 5.88401 40.378 5.8809 39.9769L5.87883 39.7142C5.87779 39.6139 5.86329 39.5104 5.8343 39.4068C5.75249 39.1147 5.53606 38.9381 5.25439 38.9327C4.9634 38.9283 4.7449 39.1027 4.66205 39.3959C4.6227 39.5365 4.61442 39.6793 4.61234 39.8014C4.60613 40.039 4.59992 40.3355 4.61234 40.62C4.61442 40.6505 4.61338 40.6713 4.61131 40.6832C4.59992 40.6854 4.58024 40.6876 4.55021 40.6876C3.67206 40.6789 2.77941 40.6789 1.82256 40.6876C1.79874 40.6876 1.78218 40.6876 1.77078 40.6843C1.76975 40.6723 1.76768 40.6549 1.76871 40.6309C1.77493 40.1829 1.77389 39.7284 1.77286 39.2891C1.77286 39.1158 1.77286 38.9414 1.77286 38.7681C1.77286 38.6111 1.81531 38.5849 1.94062 38.5849H20.5081C21.3573 38.586 22.2344 38.5871 23.098 38.5806C23.127 38.5806 23.1467 38.5817 23.1591 38.5838C23.1612 38.5969 23.1622 38.6176 23.1622 38.6482C23.1508 39.3109 23.1508 39.9649 23.1622 40.5906C23.1633 40.6396 23.1602 40.668 23.157 40.6822C23.1436 40.6854 23.1187 40.6887 23.0752 40.6876C22.4436 40.6789 21.8025 40.6811 21.1822 40.6822C20.9441 40.6822 20.7059 40.6832 20.4667 40.6832C20.417 40.6832 20.3621 40.6832 20.3227 40.6811C20.3207 40.6386 20.3196 40.5797 20.3196 40.5241C20.3186 40.45 20.3196 40.3769 20.3196 40.3039C20.3196 40.0674 20.3196 39.8221 20.301 39.579C20.273 39.2008 20.0307 38.9392 19.6983 38.9305C19.37 38.9185 19.1205 39.1714 19.0635 39.5692C19.0542 39.6335 19.049 39.6946 19.049 39.7513C19.049 39.8832 19.048 40.0151 19.048 40.1459C19.0459 40.487 19.0438 40.8402 19.0511 41.189C19.0625 41.7569 19.2996 41.9989 19.8433 41.9989C20.2606 41.9989 20.6779 42 21.0953 42C21.5126 42 21.9289 41.9989 22.3462 41.9989H23.5972C24.2019 41.9989 24.4059 41.7831 24.4059 41.1443V40.196C24.4059 39.675 24.4059 39.1539 24.4059 38.6318C24.4059 38.6155 24.4059 38.598 24.4059 38.5806C24.5944 38.5413 24.7218 38.4225 24.8264 38.3255L24.9113 38.2459V31.5837L24.904 31.5542H24.903ZM8.01621 37.2725C8.02035 37.2605 8.02553 37.2486 8.02967 37.2377C8.07938 37.1058 8.12909 36.975 8.17983 36.8431C8.29063 36.552 8.40662 36.2501 8.51431 35.9503C8.54227 35.8718 8.55263 35.8609 8.63858 35.8609C11.1757 35.8653 13.748 35.8653 16.2851 35.8609C16.3731 35.8599 16.3835 35.8718 16.4114 35.9482C16.515 36.2359 16.6258 36.5248 16.7325 36.8049C16.7925 36.9608 16.8516 37.1156 16.9106 37.2725H8.01621ZM23.6769 37.2704C23.6645 37.2725 23.6427 37.2747 23.6065 37.2758C22.0221 37.2693 20.3103 37.2693 18.3707 37.2758C18.2589 37.2736 18.2454 37.2605 18.2112 37.1668C18.0093 36.6109 17.796 36.0506 17.5889 35.5078L17.4366 35.1088C17.271 34.6739 17.0959 34.5475 16.6548 34.5475H8.26578C7.83706 34.5475 7.65791 34.6761 7.49843 35.0947L7.38142 35.3999C7.16084 35.9798 6.93199 36.5804 6.71452 37.1755C6.68035 37.266 6.66585 37.2758 6.57265 37.2758C4.71694 37.2693 2.99688 37.2693 1.31307 37.2758C1.28407 37.2758 1.26233 37.2747 1.2499 37.2725C1.24783 37.2595 1.24576 37.2377 1.24576 37.205C1.25197 35.4773 1.2499 33.7365 1.24783 32.0535C1.24783 31.7635 1.32135 31.4986 1.47462 31.2447L1.63409 30.9798C1.87434 30.5797 2.11459 30.1808 2.35898 29.784C2.46668 29.6096 2.54227 29.4232 2.59198 29.215C2.74835 28.5556 2.90575 27.8961 3.06212 27.2366C3.41007 25.7782 3.7694 24.2696 4.10699 22.7806C4.26647 22.0764 4.92094 21.5292 5.60233 21.5292C5.60751 21.5292 5.61373 21.5292 5.6189 21.5303C7.25508 21.5499 8.91921 21.5456 10.5285 21.5423C11.1705 21.5412 11.8136 21.539 12.4556 21.539H12.5789C13.1836 21.539 13.7884 21.5401 14.3921 21.5412C15.991 21.5456 17.6448 21.5499 19.2706 21.527C19.9903 21.5183 20.6634 22.0688 20.8302 22.8111C21.1564 24.2706 21.5095 25.7487 21.8512 27.1778C22.0117 27.8514 22.1722 28.5239 22.3317 29.1987C22.3845 29.42 22.4632 29.614 22.573 29.7917C22.7874 30.1394 22.9986 30.4904 23.2109 30.8414L23.4449 31.2294C23.6044 31.4921 23.681 31.7722 23.68 32.0862C23.6759 34.0515 23.6759 35.6724 23.6821 37.1875C23.6821 37.2311 23.68 37.2562 23.6769 37.2704Z" fill="#E51E1B"/>
<path d="M21.9952 29.2445C21.9993 29.5529 21.8264 29.7895 21.5312 29.8767C21.3852 29.9203 21.2392 29.9235 21.1087 29.9235H3.85121C3.71038 29.9235 3.5654 29.9235 3.41317 29.881C3.10044 29.7949 2.92129 29.5508 2.93371 29.2281C2.9451 28.912 3.13875 28.6809 3.4401 28.6242C3.57368 28.5992 3.72177 28.5872 3.88021 28.5872C9.60579 28.5861 15.3324 28.5861 21.058 28.5872C21.2257 28.5872 21.3707 28.6002 21.5022 28.6275C21.8015 28.6907 21.99 28.9273 21.9952 29.2445Z" fill="#E51E1B"/>
<path d="M5.21917 35.0674C4.78735 35.4925 4.24161 35.7105 3.59749 35.716C3.46909 35.7171 3.34068 35.7171 3.2133 35.7171H2.79287L2.56401 35.7182C2.45942 35.7182 2.35587 35.7182 2.25231 35.716C1.84016 35.7073 1.5647 35.4446 1.56574 35.063C1.56677 34.6728 1.83498 34.4145 2.2492 34.4047C2.49774 34.3992 2.74938 34.4003 2.99273 34.4014C3.21538 34.4014 3.43802 34.4025 3.65963 34.3981C4.1919 34.3894 4.61959 34.0101 4.72625 33.4542C4.82048 32.9549 4.55538 32.4317 4.0956 32.2083C3.94544 32.1352 3.7725 32.1014 3.55297 32.0992H3.13771C2.94199 32.1003 2.74523 32.1003 2.54848 32.0982C2.13426 32.0916 1.85569 31.8322 1.85466 31.4529C1.85466 31.2676 1.91472 31.1062 2.02967 30.9863C2.1529 30.8566 2.32687 30.789 2.53295 30.789H2.58783C2.70899 30.789 2.83326 30.7858 2.95338 30.7814C3.42042 30.7694 3.90298 30.7552 4.38244 30.9275C5.20675 31.224 5.74006 31.8442 5.92646 32.7195C6.11493 33.6144 5.87054 34.4265 5.21917 35.0674Z" fill="#E51E1B"/>
<path d="M23.3569 35.1241C23.33 35.4544 23.0845 35.6963 22.7604 35.7116C22.6444 35.7171 22.5274 35.7181 22.4125 35.7181C22.3286 35.7181 22.2447 35.7171 22.1619 35.7171C22.0801 35.716 21.9972 35.7149 21.9144 35.7149H21.5074C21.1853 35.7149 20.856 35.6985 20.5247 35.5797C19.5191 35.2189 18.8419 34.1322 18.9475 33.0508C19.0614 31.8856 19.894 30.97 20.972 30.8228C21.3572 30.7705 21.7404 30.7781 22.1122 30.7847C22.2105 30.7868 22.3079 30.789 22.4063 30.789C22.6134 30.789 22.7863 30.8621 22.9085 30.9972C23.0214 31.1204 23.0794 31.2904 23.0721 31.4757C23.0597 31.8376 22.7925 32.0818 22.3938 32.0982C22.2281 32.1047 22.0614 32.1014 21.9009 32.0982C21.6099 32.0916 21.3355 32.0862 21.0642 32.1374C20.5143 32.2431 20.1477 32.7631 20.1922 33.3724C20.2337 33.925 20.7007 34.385 21.2361 34.3981C21.5115 34.4047 21.7932 34.4036 22.0666 34.4036C22.2261 34.4036 22.3855 34.4025 22.5461 34.4036C22.6465 34.4036 22.7459 34.4057 22.8495 34.4286C23.186 34.5039 23.3859 34.7764 23.3569 35.1252V35.1241Z" fill="#E51E1B"/>
</g>
<defs>
<clipPath id="clip0_63_76">
<rect width="48" height="42" fill="white"/>
</clipPath>
</defs>
</svg>
