<svg width="48" height="48" viewBox="0 0 48 48" fill="none" xmlns="http://www.w3.org/2000/svg">
<g clip-path="url(#clip0_29_366)">
<path d="M48 46.2828C47.3375 46.9299 47.0312 46.9048 46.475 46.1426C42.71 40.9834 38.94 35.8279 35.1937 30.6562C34.8462 30.1768 34.5 29.9528 33.8925 29.9853C32.885 30.0404 32.9262 29.934 33.3887 30.8214C34.8375 33.605 36.29 36.3861 37.74 39.1698C37.8625 39.4051 37.9987 39.6379 38.0762 39.8882C38.195 40.2674 38.045 40.5678 37.6912 40.7431C37.34 40.917 37.0175 40.862 36.7762 40.539C36.665 40.3901 36.5775 40.2211 36.4912 40.0559C34.8525 36.9131 33.205 33.7765 31.5912 30.6211C31.3512 30.1518 31.0887 29.9615 30.555 29.9865C29.5537 30.0329 29.555 29.9978 29.8512 30.9428C31.4787 36.1396 33.105 41.3376 34.7325 46.5356C34.7837 46.6996 34.84 46.8623 34.8762 47.03C34.9725 47.4831 34.785 47.8135 34.3662 47.9474C33.9662 48.0751 33.5987 47.8961 33.4512 47.453C33.1312 46.4905 32.8312 45.5218 32.5287 44.553C31.0675 39.8769 29.6025 35.2008 28.155 30.5197C28.0312 30.1205 27.8462 29.9327 27.4312 29.9991C27.385 30.0066 27.3375 29.9991 27.2912 29.9991C26.1462 29.9991 26.1725 29.9953 26.3012 31.118C26.5325 33.1319 26.7262 35.1495 26.9375 37.1646C27.1725 39.3976 27.4112 41.6292 27.6437 43.8621C27.7587 44.9635 27.8762 46.0637 27.9612 47.1677C27.9975 47.632 27.72 47.9274 27.2975 47.9775C26.8837 48.0263 26.5612 47.7885 26.5 47.3104C26.36 46.2127 26.25 45.1112 26.1337 44.0098C25.8925 41.7306 25.655 39.4514 25.4175 37.1722C25.2162 35.2334 25.0175 33.2946 24.8175 31.3558C24.8025 31.2169 24.7912 31.0767 24.77 30.9378C24.675 30.3111 24.2992 29.9978 23.6425 29.9978C22.7937 29.9978 22.7787 29.9966 22.6925 30.8014C22.41 33.436 22.1375 36.0732 21.8637 38.7092C21.5763 41.469 21.295 44.2301 21.0012 46.9899C20.9212 47.7422 20.6475 48.0438 20.1525 47.9837C19.6437 47.9224 19.4162 47.5744 19.4862 46.8498C19.67 44.956 19.8737 43.0648 20.0725 41.1736C20.2775 39.2198 20.4875 37.2673 20.6912 35.3135C20.8612 33.6851 21.0112 32.0555 21.2 30.4284C21.24 30.0792 21.145 29.9953 20.8187 29.9878C19.4712 29.954 19.475 29.9477 19.0762 31.2257C17.4187 36.5276 15.7587 41.8295 14.0975 47.1301C13.8675 47.8648 13.57 48.1051 13.0912 47.9574C12.565 47.796 12.435 47.3867 12.6687 46.6395C14.3237 41.3526 15.9787 36.0657 17.6325 30.7788C17.795 30.259 17.5979 29.9986 17.0412 29.9978C16.9012 29.9978 16.7587 30.0128 16.62 29.9953C16.2875 29.9528 16.1162 30.1142 15.9687 30.3983C14.4975 33.2408 13.0137 36.077 11.5337 38.9144C10.0612 41.7381 8.5875 44.5618 7.11625 47.3867C6.9525 47.7021 6.78 47.9963 6.36375 47.99C5.75375 47.9825 5.42625 47.4042 5.72625 46.8097C6.28875 45.6945 6.875 44.5918 7.4525 43.4841C9.71 39.151 11.9687 34.8166 14.2237 30.4822C14.4587 30.0316 14.43 30.0541 13.9187 29.9865C13.1275 29.8839 12.6587 30.1956 12.1937 30.8427C8.70875 35.684 5.17875 40.4927 1.6625 45.3115C1.6075 45.3866 1.55125 45.4629 1.495 45.538C0.96125 46.2515 0.6125 46.2715 0 45.6269C0 45.4079 0 45.1901 0 44.9711C0.11 44.8396 0.22625 44.7145 0.3275 44.5768C2.9975 40.922 5.6675 37.266 8.33625 33.61C9.1275 32.5261 9.9175 31.4397 10.705 30.3533C10.7662 30.2694 10.8825 30.1843 10.8275 30.0704C10.77 29.9515 10.6325 30.0053 10.53 30.0028C10.2337 29.9953 9.93375 30.0279 9.64 29.9941C9.1425 29.9377 8.79875 30.1292 8.46125 30.4922C6.125 33.0092 3.7725 35.51 1.4175 38.0107C0.8675 38.5928 0.5075 38.5665 0 37.9444C0 37.7567 0 37.5689 0 37.3824C0.1075 37.2498 0.2075 37.1096 0.325 36.9844C2.28625 34.8917 4.25125 32.8027 6.2125 30.71C6.39875 30.511 6.57375 30.302 6.84 29.9991C6.24375 29.9991 5.78 30.0241 5.32 29.9916C4.85125 29.9578 4.49125 30.1155 4.135 30.4146C3.25125 31.1556 2.33875 31.8627 1.43625 32.5812C0.8025 33.0856 0.58125 33.0731 0 32.5098C0 32.292 0 32.073 0 31.854C0.7075 31.262 1.41375 30.6699 2.215 29.9991C1.70625 29.9991 1.32125 29.9903 0.93625 30.0016C0.5275 30.0128 0.20625 29.8789 0.00125 29.5122V28.9502C0.23875 28.5146 0.6375 28.4608 1.08375 28.4621C7.14375 28.4671 13.2037 28.4621 19.2637 28.4733C19.7412 28.4733 20.1125 28.3619 20.4875 28.0428C22.645 26.2054 25.0737 24.8073 27.6812 23.7109C27.825 23.6508 27.9675 23.587 28.1087 23.5219C28.1362 23.5094 28.1575 23.4843 28.1837 23.4618C28.2037 23.3179 28.0787 23.2891 27.9937 23.2353C24.2462 20.9185 20.1912 19.4591 15.8087 18.971C13.585 18.7231 11.3525 18.7432 9.13375 19.1074C8.5225 19.2075 8.14625 18.991 8.06 18.4953C7.97875 18.026 8.28 17.7005 8.91375 17.6042C10.9425 17.2988 12.9787 17.2262 15.0287 17.3801C18.2812 17.6242 21.4 18.399 24.4062 19.6481C26.2575 20.4178 28.0162 21.3628 29.6625 22.5081C29.9775 22.7271 30.2562 22.7684 30.6187 22.657C33.175 21.8722 35.7962 21.5017 38.4662 21.5418C41.5337 21.5881 44.5137 22.1513 47.3937 23.219C47.6525 23.3154 47.8675 23.4543 48.0012 23.7021V24.2641C47.5675 24.8061 47.4362 24.8398 46.7075 24.577C43.2625 23.3354 39.7112 22.8585 36.0662 23.1827C31.7737 23.5644 27.81 24.9487 24.165 27.2405C23.605 27.5922 23.0675 27.9802 22.52 28.3507L22.5612 28.4646C22.7437 28.4646 22.925 28.4646 23.1075 28.4646C31.0287 28.4646 38.95 28.4658 46.8725 28.4608C47.33 28.4608 47.7537 28.4896 48.0025 28.9489V29.5109C47.7962 29.8764 47.475 30.0016 47.0675 30.0041C46.6787 30.0053 46.2825 29.944 45.8575 30.0554C46.6 30.6774 47.3012 31.2657 48.0025 31.8527V32.5086C47.42 33.0718 47.1987 33.0843 46.5662 32.5799C45.615 31.8214 44.6675 31.0592 43.715 30.3032C43.5712 30.1881 43.4412 30.0203 43.2425 30.0166C42.4387 30.0066 41.6337 30.0128 40.81 30.0128C40.8563 30.2782 41.03 30.3983 41.1625 30.5398C41.9075 31.3383 42.6625 32.1256 43.4087 32.9229C44.9425 34.5625 46.4725 36.2059 48.0037 37.8493V38.5051C47.36 39.0784 47.0762 39.0471 46.4837 38.4125C43.9475 35.699 41.4037 32.993 38.8625 30.2857C38.735 30.1493 38.6112 30.0041 38.3975 30.0041C37.8975 30.0041 37.3987 30.0016 36.8987 30.0003C36.7 30.0003 36.63 30.0679 36.7575 30.2494C36.8287 30.352 36.8987 30.4547 36.9725 30.556C39.4925 34.0093 42.0112 37.465 44.535 40.9158C45.6862 42.4891 46.8462 44.0561 48.0037 45.6257V46.2815L48 46.2828Z" fill="#E51E1B"/>
<path d="M12.2812 0C13.6562 0.351708 14.7175 1.12021 15.1387 2.4995C15.3375 3.1516 15.6462 3.46326 16.2587 3.71984C17.5 4.24052 18.16 5.63859 17.8975 6.92402C17.6062 8.35213 16.4512 9.34342 14.9275 9.3672C12.6962 9.40099 10.4637 9.40224 8.23249 9.3672C6.65624 9.34216 5.42749 8.24449 5.23749 6.78759C5.04124 5.28939 5.88749 4.00647 7.41249 3.49956C7.61249 3.43322 7.78749 3.37439 7.83499 3.12657C8.16499 1.42185 9.24624 0.443077 10.8762 0H12.2825L12.2812 0ZM11.5812 7.84396C12.72 7.84396 13.8587 7.85147 14.9975 7.84146C15.6312 7.8352 16.065 7.51353 16.28 6.93403C16.6587 5.90644 16.0287 4.95771 14.9275 4.89638C14.1712 4.85382 13.9425 4.63353 13.87 3.87505C13.8462 3.62722 13.8525 3.37189 13.79 3.13533C13.5162 2.09898 12.495 1.42811 11.3925 1.5395C10.14 1.66592 9.35124 2.4607 9.29999 3.64725C9.25874 4.62102 9.05749 4.84631 8.17999 4.89888C7.29249 4.95145 6.74999 5.54722 6.77999 6.43588C6.80874 7.2945 7.37374 7.83896 8.25874 7.84396C9.36624 7.85022 10.4737 7.84522 11.5812 7.84396Z" fill="#E51E1B"/>
<path d="M0 20.8922C0.125 20.6844 0.305 20.5468 0.51875 20.4354C1.835 19.7457 3.19375 19.1537 4.6 18.6768C5.18375 18.4791 5.56125 18.618 5.7125 19.0773C5.86875 19.548 5.67 19.8997 5.0975 20.0962C3.765 20.553 2.4825 21.1213 1.22875 21.7596C0.635 22.0612 0.4075 21.9961 0 21.4554V20.8935V20.8922Z" fill="#E51E1B"/>
<path d="M36.1037 17.8971C34.8862 17.8495 33.6675 17.9509 32.45 17.837C30.9162 17.6943 29.7025 16.3939 29.7162 14.8443C29.72 14.4563 29.6212 14.3199 29.2437 14.2173C27.285 13.6866 25.9162 11.9668 25.77 9.91291C25.635 8.03547 26.8125 6.12548 28.5937 5.33195C30.4125 4.52089 32.56 4.94645 33.9425 6.39333C34.1725 6.63364 34.3975 6.87896 34.2862 7.2557C34.1037 7.87025 33.4337 8.01794 32.955 7.52605C32.2262 6.77508 31.3662 6.40585 30.3112 6.46092C28.7775 6.54102 27.4475 7.76261 27.3112 9.2483C27.155 10.9543 28.1925 12.4437 29.7662 12.8079C30.1762 12.9031 30.5075 12.893 30.8287 12.5664C31.1137 12.276 31.4987 12.0958 31.8975 12.0094C32.1912 11.9456 32.2912 11.8041 32.355 11.5225C32.7062 9.98551 33.6437 8.97669 35.1775 8.58493C37.2062 8.06801 39.2725 9.31714 39.76 11.3473C39.8537 11.7365 40.0075 11.9406 40.41 12.067C41.7087 12.4737 42.595 13.8355 42.4412 15.0959C42.2512 16.6479 41.205 17.6968 39.7087 17.8382C38.5075 17.9521 37.3037 17.8495 36.1025 17.8971H36.1037ZM36.1037 16.3638C37.2125 16.3638 38.3212 16.3738 39.43 16.3601C40.1375 16.3513 40.66 15.9483 40.87 15.2974C41.0587 14.7154 40.8612 14.0996 40.3625 13.7104C40.1075 13.5113 39.815 13.4312 39.4937 13.41C38.6425 13.3524 38.48 13.1797 38.3975 12.3448C38.37 12.067 38.3287 11.7841 38.2437 11.52C37.9262 10.535 36.8612 9.84908 35.88 9.97549C34.68 10.1294 33.8325 11.0444 33.7812 12.2409C33.7425 13.1484 33.5462 13.3549 32.635 13.4125C32.3437 13.4312 32.085 13.5113 31.8512 13.6816C31.3287 14.0608 31.1137 14.6816 31.29 15.2987C31.4662 15.9157 32.03 16.35 32.7325 16.3601C33.8562 16.3751 34.9812 16.3638 36.105 16.3638H36.1037Z" fill="#E51E1B"/>
<path d="M41.84 47.2528C41.8325 47.6133 41.6262 47.8273 41.3062 47.9412C40.9925 48.0526 40.71 47.9775 40.5162 47.7071C40.3712 47.5069 40.265 47.2766 40.15 47.0563C39.5637 45.9373 38.9762 44.8196 38.3987 43.6956C38.1225 43.1574 38.2212 42.7619 38.6612 42.5429C39.0862 42.3301 39.4475 42.4728 39.7212 42.9922C40.3775 44.2326 41.0237 45.4792 41.6725 46.7233C41.7587 46.8898 41.8462 47.0563 41.84 47.2528Z" fill="#E51E1B"/>
</g>
<defs>
<clipPath id="clip0_29_366">
<rect width="48" height="48" fill="white"/>
</clipPath>
</defs>
</svg>
