<svg width="48" height="40" viewBox="0 0 48 40" fill="none" xmlns="http://www.w3.org/2000/svg">
<g clip-path="url(#clip0_29_387)">
<path d="M0 11.2309C1.02167 11.1127 1.5325 11.5788 1.5325 12.6291C1.5325 15.2216 1.5325 17.8154 1.5325 20.4079C1.5325 20.5705 1.5325 20.7331 1.5325 21.0316C2.22125 19.4762 2.855 18.0406 3.49 16.6065C3.96875 15.5241 4.43875 14.4365 4.93 13.3609C6.37 10.2086 10.13 9.93801 11.975 12.853C13.0475 14.5485 14.1137 16.2492 15.1687 17.958C15.3737 18.2912 15.6087 18.4578 15.9937 18.5045C17 18.6271 18.0062 18.7764 19.0012 18.975C20.4037 19.2536 21.1912 20.4052 21.0037 21.898C20.9525 22.3085 21.0563 22.3779 21.4013 22.3752C23.135 22.3619 24.8688 22.3619 26.6025 22.3752C26.95 22.3779 27.0487 22.3032 26.9988 21.8967C26.8113 20.3799 27.615 19.2349 29.0475 18.9657C30.045 18.7777 31.0512 18.6298 32.0575 18.5005C32.405 18.4552 32.6213 18.2992 32.8075 17.998C33.865 16.2906 34.9387 14.5965 35.9987 12.8917C36.86 11.5055 38.0675 10.7497 39.6237 10.843C41.2337 10.939 42.4013 11.8387 43.095 13.4062C44.1987 15.9 45.3037 18.3952 46.445 20.973C46.455 20.7531 46.4675 20.6065 46.4675 20.4598C46.4675 17.5848 46.4788 14.7084 46.4588 11.8334C46.455 11.3282 46.5938 11.1336 47.0675 11.1936C47.3763 11.2322 47.69 11.2216 48.0013 11.2336V33.1836C47.73 33.5328 47.3812 33.6261 46.9613 33.6248C43.18 33.6128 39.3988 33.6248 35.6175 33.6088C35.2137 33.6075 35.01 33.7261 34.8688 34.1486C34.33 35.7614 33.74 37.3542 33.1912 38.9643C33.0513 39.3735 32.8962 39.5015 32.4787 39.3282C31.4887 38.915 31.4775 38.9377 31.85 37.874C32.445 36.1773 33.0412 34.4805 33.6437 32.7851C33.9012 32.06 34.0575 31.952 34.7925 31.952C37.8075 31.952 40.8237 31.952 43.8387 31.952C45.6912 31.952 46.5662 30.8297 46.4437 28.8664C46.2937 26.4565 45.9338 24.1 45.0225 21.8887C43.925 19.2256 42.7612 16.5918 41.5625 13.978C40.745 12.1959 38.54 12.0266 37.4712 13.6501C36.2437 15.5161 35.07 17.4222 33.9038 19.3309C33.5913 19.8414 33.2025 20.076 32.65 20.1466C31.55 20.2866 30.455 20.4692 29.36 20.6438C28.8325 20.7277 28.585 21.0316 28.6 21.5355C28.6138 21.9887 28.9062 22.3499 29.385 22.3565C31.1187 22.3819 32.8538 22.3685 34.5875 22.3739C34.8388 22.3739 34.9337 22.1806 35.045 22.002C35.8525 20.7157 36.6588 19.4295 37.4625 18.1419C37.6613 17.8234 37.8862 17.5608 38.2863 17.5901C38.7537 17.6234 38.9625 17.9353 39.06 18.3832C39.515 20.4878 39.9762 22.5911 40.4338 24.6958C40.6975 25.91 40.9637 27.1229 41.2225 28.3385C41.4125 29.2356 41.115 29.6261 40.2463 29.6274C38.0438 29.6301 35.84 29.6274 33.6375 29.6288C32.9038 29.6288 32.7525 29.7394 32.4725 30.4525C31.475 32.9997 30.4788 35.5468 29.4813 38.094C29.2263 38.7457 29.2188 38.7564 28.6087 38.4752C27.655 38.034 27.6725 38.2806 28.11 37.1623C29.0775 34.6924 30.045 32.2226 31.01 29.7514C31.525 28.4332 32.1825 27.9627 33.5262 27.9627C35.3537 27.9627 37.1825 27.9613 39.01 27.9627C39.2675 27.9627 39.5037 27.9573 39.4188 27.5668C38.92 25.2876 38.42 23.0083 37.9212 20.7317C37.7025 20.7011 37.6712 20.8837 37.6012 20.993C37.11 21.7634 36.6063 22.5258 36.1488 23.3189C35.8475 23.8427 35.4725 24.056 34.8838 24.0506C31.7275 24.024 28.5713 24.0386 25.415 24.0386C24.9942 24.0386 24.7838 24.2692 24.7838 24.7304C24.7838 29.5861 24.7838 34.4418 24.7838 39.2976C24.7838 40.0013 24.7825 40.0053 24.11 40.0013C23.1188 39.9947 23.22 40.1106 23.22 39.0803C23.2162 34.2912 23.2188 29.5022 23.2188 24.7131C23.2188 24.2643 23.0025 24.0395 22.57 24.0386C19.3988 24.0386 16.2262 24.028 13.055 24.048C12.5238 24.052 12.175 23.8627 11.8962 23.3882C11.4338 22.5978 10.935 21.8327 10.445 21.061C10.3625 20.9317 10.3212 20.7504 10.0837 20.7011C9.87625 21.6514 9.6675 22.5991 9.46125 23.5468C9.18 24.841 8.91125 26.1393 8.6125 27.4295C8.5175 27.8374 8.61375 27.9667 9.00625 27.964C10.8813 27.9507 12.7563 27.9707 14.6313 27.9547C15.7537 27.944 16.5 28.5025 16.9237 29.5781C17.9762 32.2452 19.0125 34.9177 20.0725 37.5821C20.2313 37.9807 20.1737 38.1579 19.7825 38.3192C18.7725 38.7351 18.7825 38.7537 18.3587 37.6728C17.4175 35.2629 16.46 32.861 15.54 30.4418C15.31 29.8354 14.9525 29.6154 14.3612 29.6208C12.1587 29.6394 9.955 29.6288 7.7525 29.6274C6.88625 29.6274 6.5875 29.2329 6.78125 28.3332C7.48875 25.0463 8.20125 21.7594 8.91 18.4725C8.99875 18.0646 9.14625 17.7008 9.57875 17.6048C10.03 17.5048 10.3087 17.7674 10.5425 18.1433C11.3337 19.4202 12.1425 20.6851 12.9275 21.966C13.11 22.2646 13.315 22.3845 13.6525 22.3805C15.2463 22.3632 16.84 22.3805 18.4338 22.3685C19.2125 22.3632 19.625 21.8167 19.3725 21.1703C19.245 20.8437 19.0037 20.6918 18.6887 20.6438C17.5763 20.4745 16.4662 20.2866 15.3512 20.1439C14.7987 20.0733 14.4113 19.8374 14.1 19.3255C12.9613 17.4555 11.7987 15.6028 10.6187 13.7621C9.7575 12.4185 8.2725 12.1546 7.105 13.0903C6.82375 13.3155 6.59875 13.5955 6.45375 13.9287C5.22875 16.7504 3.875 19.5095 2.78625 22.3952C1.945 24.6251 1.6125 26.9737 1.54375 29.3622C1.49875 30.9177 2.475 31.9427 3.9775 31.9467C7.04 31.956 10.1025 31.9493 13.165 31.9493C13.9637 31.9493 14.0975 32.0426 14.3763 32.829C15.0375 34.6951 15.6825 36.5678 16.3587 38.4285C16.505 38.831 16.405 38.9763 16.05 39.1136C15.0237 39.5095 15.0262 39.5255 14.6412 38.4432C14.1275 36.997 13.605 35.5548 13.1175 34.0993C12.9888 33.7141 12.8 33.6061 12.4325 33.6075C8.63625 33.6208 4.83875 33.6101 1.0425 33.6221C0.6225 33.6221 0.27375 33.5315 0.00375 33.1809V11.2309H0Z" fill="#E51E1B"/>
<path d="M24.0137 9.60214C25.0437 9.60214 26.075 9.59281 27.105 9.60347C29.1125 9.6248 30.7587 11.3815 30.78 13.5222C30.79 14.4685 30.7712 15.4162 30.7875 16.3639C30.7937 16.7264 30.6775 16.8664 30.3287 16.8584C29.0062 16.8291 29.24 17.0143 29.2187 15.7188C29.2075 15.055 29.2325 14.3885 29.2112 13.7248C29.1662 12.2612 28.265 11.2922 26.89 11.2749C24.97 11.2509 23.0487 11.2523 21.1287 11.2749C19.7137 11.2909 18.8075 12.2852 18.785 13.8047C18.7725 14.6684 18.7712 15.5335 18.785 16.3972C18.7912 16.7438 18.6662 16.8664 18.345 16.8597C16.99 16.8331 17.24 17.0263 17.2175 15.6894C17.205 14.975 17.2112 14.2606 17.2175 13.5462C17.2375 11.3789 18.8837 9.6248 20.92 9.60613C21.95 9.5968 22.9812 9.6048 24.0112 9.6048L24.0137 9.60214Z" fill="#E51E1B"/>
<path d="M20.2175 4.40798C20.0625 2.04344 21.6138 0.433305 23.2775 0.077424C25.5363 -0.406415 27.7513 1.46096 27.7775 3.91081C27.7838 4.53994 27.8325 5.17173 27.6888 5.79685C27.2288 7.80552 25.4438 9.10908 23.485 8.85316C21.6625 8.61458 20.2363 6.89249 20.2188 4.90648C20.2175 4.73987 20.2188 4.57459 20.2188 4.40798H20.2175ZM26.2138 4.47063C26.2138 4.33734 26.22 4.20405 26.2138 4.07209C26.1325 2.70055 25.2113 1.70888 24.0113 1.69688C22.8575 1.68622 21.9288 2.62058 21.8 3.9508C21.7588 4.37866 21.765 4.81051 21.845 5.2397C22.1125 6.66589 23.3588 7.48429 24.6575 7.07376C25.6575 6.75786 26.2163 5.82484 26.2138 4.46929V4.47063Z" fill="#E51E1B"/>
<path d="M10.4813 2.41785C12.6088 2.41385 14.2788 4.1666 14.2825 6.40852C14.2863 8.69709 12.635 10.4658 10.4938 10.4672C8.3775 10.4672 6.72 8.70376 6.71875 6.44851C6.7175 4.18926 8.3675 2.42185 10.4813 2.41785ZM10.5225 4.09596C9.30375 4.10529 8.30375 5.15427 8.2925 6.43252C8.2825 7.69476 9.31 8.79173 10.5013 8.7904C11.6963 8.7904 12.6875 7.72675 12.7038 6.42718C12.72 5.20226 11.6763 4.08663 10.5225 4.09596Z" fill="#E51E1B"/>
<path d="M41.2812 6.44986C41.2775 8.72377 39.6087 10.4752 37.4537 10.4672C35.3525 10.4605 33.7112 8.67712 33.7175 6.40721C33.7225 4.16396 35.3912 2.41387 37.5187 2.41654C39.6312 2.4192 41.285 4.19195 41.2812 6.44853V6.44986ZM37.4975 8.79041C38.6925 8.79441 39.6825 7.7361 39.7037 6.4312C39.7237 5.20894 38.6812 4.09065 37.5262 4.09464C36.3112 4.09998 35.3075 5.14763 35.2925 6.42587C35.2775 7.68411 36.3037 8.78508 37.4962 8.78908L37.4975 8.79041Z" fill="#E51E1B"/>
</g>
<defs>
<clipPath id="clip0_29_387">
<rect width="48" height="40" fill="white"/>
</clipPath>
</defs>
</svg>
