<svg width="32" height="19" viewBox="0 0 32 19" fill="none" xmlns="http://www.w3.org/2000/svg">
<g clip-path="url(#clip0_28_207)">
<path d="M0 11.7113V11.0863C0.2275 10.6075 0.604375 10.4281 1.13375 10.4306C3.78875 10.445 6.44438 10.4375 9.09937 10.4369C9.82937 10.4369 10.2831 10.0856 10.2837 9.52375C10.2837 8.9625 9.82938 8.61063 9.1 8.61063C6.445 8.61063 3.78937 8.6025 1.13437 8.61687C0.605 8.61937 0.22875 8.43937 0 7.96125V7.33625C0.228125 6.8575 0.604375 6.67562 1.13437 6.68062C2.87375 6.69812 4.61312 6.68625 6.3525 6.68813C6.54187 6.68813 6.72813 6.67562 6.90625 6.61062C7.30438 6.46562 7.51812 6.1025 7.48125 5.64187C7.45062 5.26 7.235 5.04 6.79187 4.96125C6.62937 4.9325 6.46063 4.925 6.295 4.92438C4.81625 4.92125 3.33687 4.9275 1.85812 4.91875C1.31125 4.91562 0.915625 4.49687 0.915625 3.96C0.915625 3.42375 1.3125 3.01812 1.86 3.00187C2.09938 2.995 2.33938 3.00063 2.57875 2.99938C2.96562 2.99688 2.975 2.98813 2.97625 2.5875C2.9775 2.07688 2.97438 1.56687 2.9775 1.05625C2.98062 0.37125 3.35187 0.00125 4.04437 0.000625C9.54375 0 15.0431 0 20.5425 0C20.9581 0 20.9606 0.0025 20.9613 0.4125C20.9625 2.06875 20.9613 3.72437 20.9619 5.38062C20.9619 6.21562 21.3063 6.56125 22.1375 6.56125C24.3456 6.5625 26.5537 6.56125 28.7619 6.56125C30.4381 6.56125 31.4881 7.31938 32.0006 8.8975V15.46C31.7719 15.9375 31.3962 16.1462 30.8656 16.1131C30.5338 16.0925 30.1981 16.1263 29.8662 16.1044C29.5806 16.0856 29.445 16.1819 29.3544 16.4656C28.8631 17.9969 27.5063 18.9819 25.9244 18.9837C24.3138 18.9856 22.955 18.0113 22.46 16.4694C22.37 16.1888 22.2388 16.1025 21.9513 16.1031C19.0875 16.1131 16.2231 16.115 13.3588 16.1012C13.0181 16.0994 12.8738 16.2044 12.7669 16.5306C12.1912 18.2831 10.3656 19.32 8.58062 18.9081C7.22437 18.595 6.31875 17.7569 5.88375 16.4338C5.805 16.1944 5.69812 16.0962 5.44438 16.105C4.96562 16.1213 4.48625 16.1125 4.0075 16.1087C3.36063 16.1038 2.98188 15.7256 2.97813 15.0775C2.97438 14.2756 2.9725 13.4738 2.97937 12.6719C2.98125 12.4444 2.895 12.3538 2.66625 12.3575C2.15625 12.3663 1.645 12.3412 1.13563 12.365C0.605625 12.3894 0.229375 12.1894 0.00125 11.7106L0 11.7113ZM11.0319 15.3675C11.0325 14.4663 10.2506 13.6756 9.36063 13.6781C8.44 13.6806 7.65312 14.4587 7.65312 15.3669C7.65312 16.2762 8.43563 17.0513 9.36 17.0562C10.2494 17.0612 11.0312 16.2712 11.0319 15.3675ZM25.9225 13.6781C25.0013 13.6813 24.215 14.4588 24.2156 15.3675C24.2156 16.2769 24.9994 17.0519 25.9231 17.0562C26.8125 17.0606 27.595 16.2694 27.595 15.3675C27.595 14.465 26.8131 13.6756 25.9231 13.6788L25.9225 13.6781Z" fill="#E51E1B"/>
<path d="M25.405 4.73505C24.645 4.73505 23.8843 4.72693 23.1243 4.73943C22.8643 4.7438 22.7831 4.64943 22.785 4.39505C22.7943 3.1038 22.7956 1.81255 22.7843 0.521302C22.7818 0.233802 22.8825 0.188802 23.1362 0.256927C24.4656 0.613177 25.5737 1.30943 26.4512 2.37193C26.99 3.02443 27.4356 3.74005 27.8725 4.46255C27.9918 4.66068 27.9543 4.7388 27.7168 4.73693C26.9462 4.7313 26.1756 4.73505 25.405 4.73505Z" fill="#E51E1B"/>
</g>
<defs>
<clipPath id="clip0_28_207">
<rect width="32" height="18.9994" fill="white"/>
</clipPath>
</defs>
</svg>
