<svg width="32" height="32" viewBox="0 0 32 32" fill="none" xmlns="http://www.w3.org/2000/svg">
<g clip-path="url(#clip0_28_214)">
<path d="M1.54326 22.5894C1.62219 21.8851 1.71531 20.9263 1.84125 19.972C1.92906 19.3046 1.83948 18.675 1.54858 18.076C1.1814 17.3214 0.801814 16.5731 0.431093 15.8202C-0.329862 14.2777 -0.0788709 12.7882 1.15036 11.5875C1.70822 11.0424 2.26874 10.4992 2.84344 9.97122C3.43234 9.42976 3.78 8.76598 3.94762 7.98348C4.12323 7.1623 4.30682 6.34111 4.52854 5.53162C4.92409 4.08264 6.13559 3.13554 7.61936 3.05639C8.52577 3.00782 9.4304 2.93766 10.3368 2.8774C10.9195 2.83872 11.433 2.61207 11.8968 2.26758C12.5319 1.79718 13.1598 1.31688 13.7895 0.839287C15.2644 -0.278708 16.7384 -0.277808 18.2213 0.841985C18.8253 1.298 19.4346 1.74771 20.0314 2.21272C20.6053 2.65884 21.2562 2.8783 21.9702 2.92147C22.7994 2.97184 23.6287 3.01321 24.457 3.05998C25.8557 3.13913 27.0796 4.10333 27.4583 5.47406C27.7084 6.37979 27.9062 7.30171 28.1181 8.21823C28.2671 8.86042 28.5749 9.40458 29.0467 9.85699C29.6666 10.4506 30.2928 11.0379 30.9039 11.6406C32.0684 12.7891 32.3167 14.2921 31.5956 15.7672C31.2808 16.4103 30.9863 17.0659 30.6342 17.6875C30.1323 18.5725 30.0604 19.4962 30.2085 20.4829C30.3292 21.2897 30.4666 22.1001 30.4578 22.9212C30.4427 24.2803 29.8236 25.2922 28.6432 25.9074C27.8574 26.3175 27.0281 26.6467 26.2095 26.9885C25.508 27.2808 24.9599 27.7413 24.5519 28.3853C24.1271 29.0554 23.697 29.7228 23.2597 30.3847C22.34 31.7771 20.9015 32.3041 19.3184 31.8319C18.5849 31.6134 17.8532 31.3912 17.1242 31.1582C16.3943 30.9244 15.6715 30.9073 14.9371 31.1457C14.2099 31.3822 13.4755 31.5972 12.7412 31.8139C11.0667 32.3095 9.66454 31.7905 8.70315 30.3218C8.27478 29.667 7.84996 29.0095 7.42868 28.3511C7.03047 27.7296 6.49656 27.2826 5.81808 26.9993C5.04028 26.6737 4.26247 26.3445 3.49974 25.9847C2.23415 25.3875 1.5406 24.2524 1.54503 22.5912L1.54326 22.5894ZM16.0156 5.04503C10.0157 5.03874 5.18218 9.90916 5.16976 15.974C5.15735 22.0641 9.97584 26.9624 15.9845 26.9687C21.9844 26.975 26.8171 22.1055 26.8304 16.0388C26.8437 9.94874 22.0261 5.05133 16.0156 5.04503Z" fill="#E51E1B"/>
<path d="M15.9871 25.9846C10.5638 25.9792 6.13375 21.4794 6.14262 15.9856C6.1506 10.4973 10.5993 6.01812 16.0297 6.02981C21.4513 6.0415 25.8725 10.5477 25.8583 16.045C25.8441 21.5162 21.4007 25.99 15.988 25.9846H15.9871ZM11.4711 14.2713C11.0729 14.2587 10.719 14.4215 10.4316 14.7309C9.87822 15.3254 9.91635 16.161 10.5452 16.8077C11.5323 17.8232 12.5309 18.826 13.5278 19.8307C14.3224 20.6321 15.1038 20.6294 15.894 19.8226C17.7423 17.9347 19.5879 16.0441 21.4327 14.1526C21.5329 14.0491 21.6304 13.9385 21.7085 13.818C22.2468 12.9932 21.8309 11.9013 20.8881 11.6459C20.3116 11.4894 19.8451 11.6863 19.4442 12.0974C17.956 13.6201 16.4643 15.1393 14.985 16.6701C14.7721 16.8905 14.6391 16.8949 14.4262 16.6728C13.7956 16.0108 13.1446 15.3695 12.5034 14.7174C12.2249 14.435 11.8977 14.2704 11.4711 14.2713Z" fill="#E51E1B"/>
</g>
<defs>
<clipPath id="clip0_28_214">
<rect width="32" height="32" fill="white"/>
</clipPath>
</defs>
</svg>
