<svg width="32" height="32" viewBox="0 0 32 32" fill="none" xmlns="http://www.w3.org/2000/svg">
<path d="M13.6573 21.752L8 16.0934L9.88533 14.208L13.6573 17.9787L21.1987 10.436L23.0853 12.3227L13.6573 21.752Z" fill="#E51E1B"/>
<path fill-rule="evenodd" clip-rule="evenodd" d="M1.33334 15.9999C1.33334 7.89992 7.90001 1.33325 16 1.33325C24.1 1.33325 30.6667 7.89992 30.6667 15.9999C30.6667 24.0999 24.1 30.6666 16 30.6666C7.90001 30.6666 1.33334 24.0999 1.33334 15.9999ZM16 27.9999C14.4241 27.9999 12.8637 27.6895 11.4078 27.0865C9.9519 26.4834 8.62903 25.5995 7.51473 24.4852C6.40043 23.3709 5.51651 22.048 4.91346 20.5921C4.3104 19.1362 4.00001 17.5758 4.00001 15.9999C4.00001 14.4241 4.3104 12.8636 4.91346 11.4077C5.51651 9.95181 6.40043 8.62894 7.51473 7.51464C8.62903 6.40033 9.9519 5.51642 11.4078 4.91336C12.8637 4.31031 14.4241 3.99992 16 3.99992C19.1826 3.99992 22.2349 5.2642 24.4853 7.51464C26.7357 9.76507 28 12.8173 28 15.9999C28 19.1825 26.7357 22.2348 24.4853 24.4852C22.2349 26.7356 19.1826 27.9999 16 27.9999Z" fill="#E51E1B"/>
</svg>
