<svg width="26" height="32" viewBox="0 0 26 32" fill="none" xmlns="http://www.w3.org/2000/svg">
<path d="M1.74195 0H20.6968C21.7349 0.294473 22.4702 1.10949 22.4515 2.46924C22.41 5.62169 22.4354 8.77581 22.4431 11.9283C22.4431 12.2094 22.3812 12.2903 22.0801 12.2186C20.8868 11.9341 19.6893 11.9349 18.4952 12.2344C14.0783 13.3406 11.2635 18.4492 13.6229 22.8822C13.7052 23.0373 13.7985 23.1833 13.7976 23.3752C13.7891 24.6131 13.7908 25.8519 13.7883 27.0899C13.7874 27.4961 13.7857 27.4986 13.3583 27.4986C9.65891 27.4986 5.95952 27.5011 2.25929 27.4978C0.967645 27.497 0.0025149 26.5535 0.00166681 25.2905C-0.000877473 17.5892 -2.93793e-05 9.88863 0.00166681 2.18811C0.00166681 2.02294 0.0101477 1.8536 0.0483119 1.69343C0.262031 0.79416 0.870115 0.268613 1.74195 0ZM10.4502 6.96976C11.7647 6.96976 13.0784 6.96976 14.393 6.96976C14.594 6.96976 14.7941 6.97977 14.9934 6.92722C15.4073 6.81877 15.688 6.51929 15.755 6.09969C15.8101 5.75433 15.5964 5.3464 15.2538 5.15871C15.0443 5.04359 14.8145 5.01856 14.5778 5.01856C11.8326 5.02023 9.08729 5.02023 6.34201 5.01856C6.1707 5.01856 6.00362 5.03191 5.83994 5.08196C5.13857 5.29718 4.92315 6.15641 5.44303 6.66611C5.68474 6.90386 5.98666 6.97059 6.31572 6.96976C7.69387 6.96809 9.07118 6.96976 10.4493 6.96976H10.4502ZM10.4561 10.9664C11.8131 10.9664 13.1692 10.9664 14.5261 10.9664C14.6966 10.9664 14.8645 10.9597 15.0299 10.9139C15.4285 10.8021 15.7313 10.4701 15.7575 10.0596C15.783 9.66173 15.5947 9.35558 15.2478 9.1537C15.0519 9.03942 14.8297 9.01522 14.6033 9.01522C11.8368 9.01606 9.07033 9.01689 6.3047 9.01522C6.13253 9.01522 5.96546 9.03524 5.80432 9.08947C5.15383 9.31053 4.94351 10.118 5.40402 10.6211C5.64997 10.8905 5.9697 10.9673 6.32251 10.9664C7.70066 10.9648 9.07796 10.9664 10.4561 10.9664ZM8.67681 14.9623C9.4825 14.9623 10.2873 14.9664 11.093 14.9606C11.6036 14.9564 11.9784 14.7195 12.1311 14.3274C12.383 13.6784 11.9013 13.0302 11.1363 13.0169C10.3102 13.0027 9.48335 13.0127 8.65646 13.0127C7.84059 13.0127 7.02388 13.0019 6.20801 13.0169C5.46339 13.0302 4.99609 13.6267 5.20048 14.2707C5.33617 14.6978 5.7229 14.9564 6.2606 14.9606C7.06628 14.9664 7.87113 14.9623 8.67681 14.9623Z" fill="#E51E1B"/>
<path d="M14.7568 19.4777C14.7568 16.4012 17.2528 13.9611 20.3967 13.9636C23.5066 13.9653 26 16.4229 26 19.4844C26 22.5542 23.4956 25.0035 20.3593 25.001C17.2519 24.9985 14.7568 22.5384 14.7568 19.4777ZM22.8934 18.0671C22.8977 17.675 22.6059 17.2779 22.2277 17.1419C21.8427 17.0035 21.3966 17.1127 21.1498 17.4506C20.7741 17.9653 20.4221 18.4975 20.0634 19.0239C19.7609 19.4677 19.3846 19.5517 18.9345 19.2758C18.4265 18.9647 17.838 19.0631 17.5343 19.5102C17.2163 19.9799 17.3486 20.538 17.8685 20.8875C18.3231 21.192 18.781 21.4923 19.2416 21.7868C19.8183 22.1555 20.3407 22.0646 20.7257 21.5081C21.3864 20.5547 22.0318 19.5912 22.6831 18.6318C22.8027 18.4558 22.8722 18.2623 22.8926 18.0679L22.8934 18.0671Z" fill="#E51E1B"/>
<path d="M24.9823 28.4155C24.9823 29.248 24.9865 30.0797 24.9815 30.9123C24.9755 31.7857 24.1673 32.2653 23.3853 31.8449C22.4838 31.3602 21.5933 30.8572 20.7096 30.3425C20.4645 30.1999 20.2813 30.2099 20.0422 30.3483C19.1941 30.8405 18.3214 31.2918 17.4818 31.7974C16.6371 32.3062 15.7313 31.7456 15.7601 30.8105C15.8119 29.1579 15.7737 27.5029 15.7771 25.8487C15.7771 25.741 15.7211 25.5967 15.8415 25.535C15.9459 25.4816 16.0341 25.5942 16.118 25.6501C17.3724 26.4852 18.7649 26.9173 20.2711 26.9381C21.7765 26.959 23.1818 26.5669 24.4582 25.7652C24.5387 25.7152 24.6202 25.6651 24.6965 25.6092C24.9068 25.4549 24.9865 25.51 24.9848 25.7619C24.9789 26.4793 24.9831 27.1976 24.9831 27.915C24.9831 28.0818 24.9831 28.2478 24.9831 28.4147L24.9823 28.4155Z" fill="#E51E1B"/>
</svg>
