<svg width="18" height="32" viewBox="0 0 18 32" fill="none" xmlns="http://www.w3.org/2000/svg">
<g clip-path="url(#clip0_28_199)">
<path d="M8.41337 32C7.5807 31.768 6.8929 31.3512 6.46907 30.5968C5.86205 29.5161 6.03525 28.2521 6.94536 27.3745C7.17019 27.1577 7.13355 27.0465 6.93287 26.8553C5.21006 25.2122 3.50224 23.5538 1.77443 21.9163C1.41388 21.5747 1.25734 21.1987 1.26067 20.7227C1.27066 19.2755 1.26067 17.8284 1.26733 16.3804C1.26816 16.1428 1.20238 15.982 0.986719 15.8332C0.0890925 15.2148 -0.218998 14.2004 0.157372 13.2021C0.478786 12.3501 1.44636 11.7357 2.39644 11.7805C3.49391 11.8317 4.35657 12.5101 4.61803 13.5269C4.84285 14.4012 4.45982 15.3652 3.65962 15.8796C3.48142 15.994 3.42064 16.1156 3.4223 16.3124C3.42896 17.6348 3.42647 18.9571 3.4248 20.2795C3.4248 20.4291 3.43979 20.5627 3.55803 20.6803C4.9103 22.0307 6.2584 23.385 7.60901 24.7378C7.63066 24.7594 7.66063 24.773 7.69061 24.7922C7.81634 24.721 7.76472 24.605 7.76472 24.513C7.76722 18.8899 7.76555 13.2677 7.77221 7.64461C7.77221 7.35982 7.68145 7.25102 7.37919 7.27182C7.05528 7.29342 6.72887 7.27902 6.40412 7.27582C5.92783 7.27182 5.77045 7.05983 5.94698 6.63424C6.42161 5.49347 6.90623 4.35749 7.38585 3.21912C7.78886 2.26395 8.19022 1.30877 8.59406 0.354394C8.66318 0.191198 8.71813 -0.000797488 8.95045 2.49155e-06C9.18443 0.000802472 9.23273 0.195998 9.30184 0.358394C10.1795 2.44234 11.0571 4.52629 11.9323 6.61104C12.1346 7.09343 12.008 7.27422 11.476 7.27582C11.0746 7.27742 10.6733 7.29022 10.2736 7.27182C9.99713 7.25902 9.92468 7.36222 9.92635 7.61501C9.93468 9.72856 9.93134 11.8421 9.93134 13.9565C9.93134 15.9244 9.93134 17.8924 9.93301 19.8603C9.93301 19.9587 9.89804 20.0659 9.96715 20.1595C10.0704 20.1523 10.1154 20.0723 10.1737 20.0171C11.5517 18.7203 12.9257 17.4188 14.3079 16.1268C14.4944 15.9524 14.5735 15.7732 14.5694 15.5236C14.556 14.722 14.5569 13.9205 14.5694 13.1189C14.5727 12.8709 14.5069 12.7677 14.2255 12.7709C13.1205 12.7861 13.2712 12.8405 13.2654 11.8237C13.2596 10.8349 13.272 9.84536 13.2596 8.85658C13.2554 8.57339 13.352 8.47339 13.6518 8.47579C14.974 8.48699 16.2963 8.48539 17.6186 8.47739C17.8951 8.47579 18.0033 8.56219 18.0008 8.83738C17.99 10.0038 17.9975 11.1701 17.9958 12.3357C17.9958 12.6869 17.9201 12.7589 17.5645 12.7749C17.532 12.7765 17.4996 12.7749 17.4671 12.7757C16.953 12.7815 16.696 13.0279 16.696 13.5149C16.696 14.3476 16.6802 15.1812 16.7027 16.014C16.7152 16.4644 16.5611 16.8076 16.2281 17.1228C14.238 19.0099 12.2645 20.9131 10.2727 22.7986C10.0188 23.0386 9.91719 23.2818 9.92468 23.6194C9.94467 24.5458 9.93884 25.473 9.92718 26.3993C9.92385 26.6337 9.99296 26.7665 10.2186 26.8897C11.3327 27.4977 11.9015 28.4225 11.7349 29.6593C11.5809 30.8032 10.8931 31.5704 9.73067 31.9208C9.65906 31.9424 9.58995 31.9744 9.52 32.0016H8.41421L8.41337 32Z" fill="#E51E1B"/>
</g>
<defs>
<clipPath id="clip0_28_199">
<rect width="18" height="32" fill="white"/>
</clipPath>
</defs>
</svg>
